<svg id="Ebene_1" data-name="Ebene 1" xmlns="http://www.w3.org/2000/svg" xmlns:xlink="http://www.w3.org/1999/xlink" viewBox="0 0 324.53 214.559">
  <defs>
    
    <clipPath id="clip-path" transform="translate(-122.302 -271.728)">
      <rect class="cls-1" x="208.96" y="271.728" width="158.534" height="158.536"></rect>
    </clipPath>
    <clipPath id="clip-path-2" transform="translate(-122.302 -271.728)">
      <rect class="cls-1" x="208.96" y="271.728" width="158.536" height="158.536"></rect>
    </clipPath>
  </defs>
  <title>paulanerstuben_logo</title>
  <g class="cls-2">
    <path class="cls-3" d="M288.25,271.728a79.269,79.269,0,1,1-79.29,79.222,79.246,79.246,0,0,1,79.29-79.222" transform="translate(-122.302 -271.728)"></path>
  </g>
  <g class="cls-4">
    <path class="cls-5" d="M361.987,351.019a73.753,73.753,0,1,1-73.749-73.767,73.731,73.731,0,0,1,73.749,73.767" transform="translate(-122.302 -271.728)"></path>
    <path class="cls-3" d="M341.026,350.963A52.8,52.8,0,1,1,288.1,298.188a52.808,52.808,0,0,1,52.927,52.775" transform="translate(-122.302 -271.728)"></path>
    <path class="cls-6" d="M345.673,324.613a9.746,9.746,0,0,1-1.27,3.108c-.322.571-.723,1.095-1.06,1.66a3.48,3.48,0,0,0-.455,2.926c.071.231.01.322-.222.38-.364.091-.723.21-1.08.332-.187.066-.283.071-.366-.16-.486-1.369-1.014-2.722-1.483-4.095a2.366,2.366,0,0,1,.334-2.337c.627-.827,1.292-1.617,1.97-2.4a7.478,7.478,0,0,0,.977-1.409,1.476,1.476,0,0,0-.212-1.679c-.108-.148-.181-.069-.272-.015-.918.563-1.843,1.112-2.745,1.7a1.11,1.11,0,0,0-.457,1.5,2.4,2.4,0,0,0,.343.667c.287.341.162.5-.183.657-.312.143-.657.505-.9.44s-.4-.528-.578-.825c-1.247-2.055-2.487-4.114-3.744-6.163-.158-.258-.175-.391.116-.544a6.233,6.233,0,0,0,.8-.534c.173-.127.278-.12.391.073a4.605,4.605,0,0,0,.434.617,1.063,1.063,0,0,0,1.643.274c.8-.507,1.6-1.033,2.392-1.55,1.444-.935,2.892-1.862,4.332-2.8,1.056-.688,1.18-1.319.43-2.325-.2-.266-.208-.387.116-.528a12.206,12.206,0,0,0,1.11-.586c.141-.077.239-.112.339.06,1.691,2.876,3.651,5.6,4.968,8.687a10.635,10.635,0,0,1,.771,2.732c.32,2.3-.958,3.507-3.206,3.73a3.643,3.643,0,0,1-3.237-1.585" transform="translate(-122.302 -271.728)"></path>
    <path class="cls-6" d="M319.48,299.5c1.272-1.964,2.5-3.813,3.676-5.7.632-1.016.476-1.5-.571-2.123-.3-.181-.351-.3-.147-.586a11.08,11.08,0,0,0,.652-1.076c.1-.189.187-.226.38-.1q2.429,1.573,4.87,3.129c.174.112.227.191.087.376-.2.266-.376.557-.561.837-.31.465-.308.461-.812.177a8.9,8.9,0,0,0-.889-.47.783.783,0,0,0-1.062.307c-.093.121-.17.256-.251.388q-2.808,4.624-5.608,9.254c-.17.28-.287.312-.567.139-.869-.536-1.756-1.043-2.641-1.55a.6.6,0,0,1-.328-.445q-.966-5.066-1.955-10.131c-.133-.679-.353-1.342-.538-2.04a.682.682,0,0,0-.289.44q-1.125,2.866-2.246,5.733a4.57,4.57,0,0,0-.187.6,1.132,1.132,0,0,0,.482,1.284c.091.064.187.123.276.189.266.195.821.241.8.5a5.058,5.058,0,0,1-.5,1.409c-.056.139-.166.058-.247.023-1.822-.744-3.644-1.494-5.467-2.234-.166-.067-.231-.135-.141-.3a1.37,1.37,0,0,0,.066-.154c.129-.339.17-.788.414-.985s.621.156.954.216c.654.118,1.029-.075,1.332-.792.465-1.109.9-2.225,1.355-3.339q.821-2.039,1.646-4.077c.064-.156.125-.312.179-.47a1.03,1.03,0,0,0-.65-1.515c-.59-.274-.59-.274-.33-.869l.118-.268c.391-.9.391-.9,1.28-.532,1.511.619,3.023,1.242,4.54,1.849a.586.586,0,0,1,.424.486q1.053,5.584,2.126,11.164c.073.382.191.754.322,1.261" transform="translate(-122.302 -271.728)"></path>
    <path class="cls-6" d="M289.533,295.111c-.91,0-1.82-.008-2.73.006-.256,0-.347-.064-.32-.332.037-.374.046-.754.048-1.132,0-.183.066-.247.247-.233a2.4,2.4,0,0,0,2.392-1.44c.887-1.56,1.531-3.229,2.256-4.86.5-1.122.972-2.256,1.438-3.393.387-.95.091-1.427-.933-1.548-.613-.073-.613-.073-.613-.7,0-.925,0-.9.943-.844,2.082.131,4.154.359,6.231.538.632.054.625.056.744.675q1.012,5.312,2.038,10.622a12.418,12.418,0,0,0,.436,1.616,1.789,1.789,0,0,0,1.384,1.307c.939.2.931.243.6,1.159-.2.565-.2.569-.787.42a53.467,53.467,0,0,0-7.372-1.367c-.249-.025-.382-.093-.334-.384.06-.357.083-.721.112-1.083.015-.206.087-.28.314-.262,1.305.1,1.394-.006,1.172-1.284-.058-.332-.131-.659-.166-.993-.021-.218-.12-.268-.318-.287q-2.007-.188-4.01-.4a.388.388,0,0,0-.47.28c-.129.308-.326.586-.472.887-.4.814-.064,1.4.841,1.432.291.012.353.1.337.364-.017.349-.015.7,0,1.049.01.22-.06.283-.281.281-.91-.013-1.82-.006-2.73-.006Z" transform="translate(-122.302 -271.728)"></path>
    <path class="cls-6" d="M242.138,315.875a1.24,1.24,0,0,0,.887-.636c.127-.21.226-.272.438-.077a10.542,10.542,0,0,0,.92.731c.15.11.148.193.044.335q-1.663,2.267-3.31,4.546c-.114.158-.195.189-.366.083-.368-.229-.746-.443-1.13-.644-.2-.108-.174-.177-.037-.332a2.187,2.187,0,0,0,.085-3.221,6.1,6.1,0,0,1-.459-.7q-2.7-4.589-5.4-9.177a.444.444,0,0,1,.062-.638c.947-1.01,1.876-2.042,2.8-3.077a.393.393,0,0,1,.528-.129c3.345,1.376,6.7,2.736,10.04,4.11a7.129,7.129,0,0,0,1.594.615,2.218,2.218,0,0,0,2.045-.594c.087-.089.206-.148.291-.239.181-.2.307-.156.457.046a10.343,10.343,0,0,0,.694.844c.152.166.118.262-.031.407q-2.869,2.776-5.722,5.566c-.148.145-.241.17-.4.013a12.087,12.087,0,0,0-.948-.827c-.185-.147-.164-.251-.019-.4a1.715,1.715,0,0,0,.2-.268c.459-.677.349-1.006-.413-1.255-.253-.083-.5-.172-.752-.26-.677-.235-.675-.235-1.132.293-.769.891-1.536,1.781-2.315,2.662a.364.364,0,0,0-.073.5c.253.434.472.887.7,1.334a.678.678,0,0,0,.727.382" transform="translate(-122.302 -271.728)"></path>
    <path class="cls-6" d="M244.947,295.563q2.042-1.391,4.064-2.768c.844-.574,1.695-1.141,2.531-1.725.185-.129.283-.152.416.066.218.357.467.7.713,1.035.108.147.1.227-.054.334a7.605,7.605,0,0,0-.688.549.776.776,0,0,0-.166,1.026,2.039,2.039,0,0,0,.121.22c1.365,2.03,2.741,4.054,4.1,6.092a3.027,3.027,0,0,0,3.586,1.078,4.771,4.771,0,0,0,2.844-2.155,2.338,2.338,0,0,0,.187-2.29c-.974-2.24-1.943-4.484-2.975-6.7-.359-.769-.931-1.247-1.9-.636-.093.058-.212.075-.307.133-.231.145-.339.052-.432-.173-.148-.361-.318-.713-.492-1.064-.081-.166-.046-.241.123-.314q2.7-1.188,5.4-2.394c.17-.075.241-.027.307.129.168.4.334.8.532,1.184.118.226.021.293-.162.353-.12.04-.235.087-.355.129a1.138,1.138,0,0,0-.79,1.731c.347.852.74,1.689,1.089,2.541.638,1.563,1.425,3.065,1.916,4.688a4.322,4.322,0,0,1-1.018,4.507,10.914,10.914,0,0,1-6.291,3.518,4.708,4.708,0,0,1-5.08-2.142c-1.1-1.687-2.238-3.349-3.36-5.02-.125-.187-.251-.374-.391-.548a1.321,1.321,0,0,0-2.1-.268c-.328.254-.5.266-.7-.12a10.764,10.764,0,0,0-.663-1" transform="translate(-122.302 -271.728)"></path>
    <path class="cls-6" d="M332.27,312.94a1.445,1.445,0,0,0,1.039-.362c.337-.328.563-.268.8.108a3.141,3.141,0,0,0,.492.571c.181.177.193.278-.04.436-.844.573-1.677,1.162-2.5,1.76-.21.154-.322.145-.507-.048-1.735-1.828-3.472-3.653-5.269-5.421q-1.8-1.767-3.709-3.41c-.253-.218-.245-.335-.013-.54.262-.229.47-.652.748-.7s.544.374.817.586a.9.9,0,0,0,1.353-.017,28.421,28.421,0,0,0,2.265-2.477c1.2-1.332,2.375-2.684,3.561-4.027.731-.829.669-1.463-.229-2.09-.256-.177-.3-.3-.054-.53a9.116,9.116,0,0,0,.74-.8c.127-.148.208-.191.393-.046a59.946,59.946,0,0,1,10.117,9.788c.131.164.143.249-.014.4q-1.284,1.241-2.547,2.5c-.139.139-.226.156-.36,0-.239-.274-.488-.542-.75-.794-.135-.131-.1-.222-.01-.353.173-.237.339-.48.49-.733a1.435,1.435,0,0,0-.21-2.009c-.276-.3-.594-.553-.879-.841q-1.113-1.116-2.213-2.242c-.463-.474-.519-.467-.964.012-.706.758-1.417,1.511-2.153,2.24-.243.243-.216.378.014.588.3.276.559.588.844.877a1.322,1.322,0,0,0,2.065.12c.237-.2.355-.193.567.029.617.646.628.634.006,1.257-1.02,1.02-2.045,2.032-3.054,3.063-.21.216-.343.229-.509-.015a1.183,1.183,0,0,0-.143-.152c-.222-.235-.549-.436-.634-.711-.089-.295.345-.443.5-.7a1.184,1.184,0,0,0-.008-1.375,10.6,10.6,0,0,0-1.141-1.23c-.112-.121-.173-.064-.262.025-.788.794-1.59,1.575-2.367,2.383a1.042,1.042,0,0,0-.179,1.211,2.85,2.85,0,0,0,.615.895q1.206,1.2,2.435,2.373a1.254,1.254,0,0,0,.862.4" transform="translate(-122.302 -271.728)"></path>
    <path class="cls-6" d="M233.345,320.516a6.148,6.148,0,0,1-.538,2.123c-.357.835-.7,1.675-1.07,2.5-.106.237-.11.355.162.467.721.3,1.425.642,2.148.939a1.59,1.59,0,0,0,2.41-.989c.067-.2.152-.183.307-.118.359.156.719.3,1.087.44.181.067.175.16.112.312q-1.512,3.566-3.015,7.137c-.067.162-.129.214-.307.127a10.43,10.43,0,0,0-1-.422c-.218-.079-.214-.183-.15-.38.5-1.517.37-1.785-1.112-2.414-2.327-.985-4.671-1.934-6.973-2.975a1.389,1.389,0,0,0-2.074.9c-.112.359-.247.374-.54.2a11.541,11.541,0,0,0-1.045-.53c-.179-.083-.249-.15-.154-.37,1.168-2.718,2.311-5.448,3.491-8.164a6.091,6.091,0,0,1,1.348-1.91,3.372,3.372,0,0,1,3.5-.941,4.331,4.331,0,0,1,3.289,2.923,3.611,3.611,0,0,1,.129,1.141" transform="translate(-122.302 -271.728)"></path>
    <path class="cls-6" d="M242.292,394.683a1.614,1.614,0,0,0,.638-.173c1.924-.713,3.85-1.419,5.743-2.211a.379.379,0,0,1,.478.077q1.593,1.5,3.21,2.963c.187.17.239.283,0,.428a.742.742,0,0,0-.191.164c-.256.314-.463.349-.788.021a.974.974,0,0,0-1.54.093c-1.546,1.718-3.1,3.424-4.621,5.165-.588.673-.53,1.074,0,1.563.243.226.206.37-.042.573-.551.451-.542.468-1.072-.012-1.319-1.191-2.631-2.391-3.958-3.574-.226-.2-.312-.341,0-.522a.588.588,0,0,0,.158-.135c.278-.359.54-.312.852-.021a1.015,1.015,0,0,0,1.282.087,2.216,2.216,0,0,0,.549-.451q1.6-1.755,3.192-3.513a.666.666,0,0,0,.206-.368c-.216.079-.4.129-.573.208-2.362,1.091-4.831,1.9-7.233,2.888-.168.069-.293.071-.393-.094a.106.106,0,0,0-.025-.033c-.677-.765-.671-.763-.222-1.7,1.02-2.111,2.115-4.187,3.042-6.345a2.744,2.744,0,0,0,.112-.27c.027-.085.121-.187-.006-.258-.094-.052-.148.052-.208.1-1.263,1-2.525,2-3.782,3a3.979,3.979,0,0,0-.532.534c-.511.6-.513.939.013,1.535.143.162.156.239-.006.4-.63.617-.623.623-1.168-.077-.765-.981-1.527-1.968-2.308-2.938-.17-.212-.172-.337.044-.5s.393-.353.59-.53c.141.158.264.31.4.451.627.636,1.006.663,1.706.108q2.105-1.669,4.207-3.345c.328-.262.661-.519.985-.785.659-.54.723-.995.166-1.637-.258-.3-.216-.441.067-.673.576-.472.561-.488,1.031.083.908,1.1,1.81,2.209,2.73,3.3a.477.477,0,0,1,.064.625,45.588,45.588,0,0,0-2.79,5.8" transform="translate(-122.302 -271.728)"></path>
    <path class="cls-6" d="M306.2,415.713c.056,0,.112-.01.168-.01.2.006.494-.212.576-.081a2.857,2.857,0,0,1,.27.914c.048.229-.175.179-.287.208-1.434.359-2.874.709-4.311,1.064-.42.1-.842.2-1.261.318-.2.054-.326.012-.349-.214a.419.419,0,0,0-.015-.083c-.179-.665-.179-.665.434-.916a.986.986,0,0,0,.684-1.322q-.8-3.273-1.616-6.549a1.054,1.054,0,0,0-1.384-.86c-.416.093-.6-.012-.63-.422a1.145,1.145,0,0,0-.077-.283c-.071-.208-.035-.3.216-.364,1.7-.4,3.393-.827,5.088-1.245l.162-.04c.636-.162.617-.156.814.472.1.334.052.468-.307.571-.869.245-1.1.673-.871,1.542.222.837.468,1.668.7,2.5.046.164.087.256.308.191,1.525-.455,3.056-.891,4.586-1.328.181-.05.251-.1.17-.31-.341-.9-.644-1.816-.995-2.712-.289-.738-.628-.887-1.378-.634-.281.093-.407.069-.509-.239-.243-.727-.26-.721.44-.985,1.565-.6,3.137-1.178,4.694-1.789.337-.133.484-.066.548.27a.355.355,0,0,0,.04.118c.218.368.177.584-.278.761a.962.962,0,0,0-.613,1.419q1.215,3.256,2.471,6.5c.233.605.557.731,1.245.58.175-.039.4-.229.528-.035a3.236,3.236,0,0,1,.332.852c.033.118-.131.127-.214.158-1.754.686-3.513,1.367-5.265,2.057-.21.083-.312.048-.347-.174a.679.679,0,0,0-.035-.077c-.262-.69-.262-.69.376-1.062a.9.9,0,0,0,.463-1.24c-.256-.692-.573-1.363-.852-2.047-.064-.154-.133-.168-.283-.123q-2.429.732-4.86,1.442c-.2.056-.195.162-.156.31.175.7.33,1.415.538,2.111a.971.971,0,0,0,1.043.79" transform="translate(-122.302 -271.728)"></path>
    <path class="cls-6" d="M282.984,290.828c.856-.033.862-.033.933.821.091,1.116.16,2.234.26,3.349.025.27-.1.283-.3.31-2.136.272-4.276.528-6.391.941-2.252.438-4.461,1.043-6.665,1.673-.322.093-.455.037-.526-.281a6.144,6.144,0,0,0-.233-.671c-.195-.546-.2-.59.362-.729a1.539,1.539,0,0,0,1.255-2.113c-.546-2.6-1.089-5.2-1.662-7.788-.22-.989-.746-1.28-1.783-1.029-.281.067-.366.01-.43-.243-.091-.351-.2-.7-.326-1.039-.079-.216-.006-.289.2-.337q3.913-.934,7.823-1.883c.222-.054.3-.021.324.2s.094.438.139.655c.139.675.137.673-.547.842a4.684,4.684,0,0,0-.6.179,1.047,1.047,0,0,0-.717,1.029,7.885,7.885,0,0,0,.349,1.891q.7,3.129,1.421,6.254a1.466,1.466,0,0,0,1.868,1.332,26.913,26.913,0,0,0,3.231-.5c.831-.2,1.047-.43,1.157-1.261a4.37,4.37,0,0,0,.01-1.3c-.042-.243.017-.334.266-.314.195.015.391,0,.588,0" transform="translate(-122.302 -271.728)"></path>
    <path class="cls-6" d="M276.484,413.535a1,1,0,0,0,.3-.563c.243-1.263.576-2.508.719-3.79a3.2,3.2,0,0,0,.012-.544.7.7,0,0,0-.655-.74c-.426-.048-.547-.245-.455-.665.133-.611.11-.615.735-.505,1.28.224,2.56.451,3.844.665.27.046.413.131.293.426a.678.678,0,0,0-.019.168c-.069.582-.069.582-.663.538a1.056,1.056,0,0,0-1.2.829,15.734,15.734,0,0,0-.494,2.207q-.671,3.265-1.317,6.535c-.048.251-.127.324-.378.285-.65-.1-1.3-.185-1.955-.253a.56.56,0,0,1-.476-.391c-1.018-2.1-1.8-4.3-2.608-6.487a12.838,12.838,0,0,0-1.151-2.391c-.44,1.44-.856,2.8-1.272,4.16q-.142.46-.274.923c-.268.925-.025,1.423.9,1.691.378.11.393.249.274.574-.272.729-.254.735-1,.5-1.188-.368-2.371-.75-3.563-1.1-.3-.089-.382-.218-.245-.494a.854.854,0,0,0,.037-.12c.067-.2.085-.459.222-.569.1-.077.357.06.546.087.654.1,1.043-.154,1.257-.881.4-1.367.781-2.739,1.168-4.11.214-.754.43-1.506.636-2.259.216-.785.112-.987-.609-1.355-.191-.1-.522-.143-.515-.366a3.265,3.265,0,0,1,.262-.964c.04-.114.172-.054.262-.027,1.405.422,2.807.852,4.214,1.263.235.069.287.239.359.418.954,2.416,2.007,4.791,2.809,7.3" transform="translate(-122.302 -271.728)"></path>
    <path class="cls-6" d="M331.027,394.147c1.249,1.438,2.535,2.7,3.834,3.954a1.079,1.079,0,0,0,1.675-.021c.324-.3.505-.281.788.033.449.5.468.48-.012.95-.908.895-1.828,1.777-2.718,2.687-.241.247-.386.229-.567-.019a.5.5,0,0,0-.12-.118c-.378-.262-.428-.488-.069-.866.476-.5.409-1.006-.127-1.55-.916-.927-1.847-1.835-2.772-2.753-.617-.609-1.232-1.224-1.855-1.828-.65-.63-1.062-.665-1.633-.152-.145.129-.364.359-.53.253a4.12,4.12,0,0,1-.75-.729c-.079-.085.037-.147.091-.2q1.567-1.492,3.135-2.98a.377.377,0,0,1,.339-.1c2.14.254,4.288.426,6.418.756a10.274,10.274,0,0,0,1.76.129c-.014-.158-.15-.2-.239-.274q-1.345-1.139-2.7-2.267a5.542,5.542,0,0,0-.578-.414c-.719-.453-.933-.434-1.517.174-.193.2-.314.226-.542.042-.669-.536-.679-.522-.154-1.17.686-.848,1.378-1.693,2.053-2.552.175-.224.318-.339.546-.083a.7.7,0,0,0,.135.1c.528.38.532.382.226.947a.742.742,0,0,0,.226,1q1.134.969,2.286,1.914,2.38,1.964,4.773,3.912c.218.177.216.274.031.47-.461.49-.9,1-1.338,1.508a.507.507,0,0,1-.467.2c-2.406-.123-4.789-.455-7.172-.79a11.37,11.37,0,0,0-2.456-.16" transform="translate(-122.302 -271.728)"></path>
    <path class="cls-6" d="M328.166,404.114a2.1,2.1,0,0,0-.272-1.07c-.093-.172-.058-.253.11-.359.729-.459.725-.467,1.136.3.351.652.692,1.309,1.055,1.955.1.183.079.27-.089.4a81.125,81.125,0,0,1-8.974,5.874c-.175.1-.3.141-.382-.085a.915.915,0,0,0-.085-.145c-.355-.58-.355-.58.147-.985a1.019,1.019,0,0,0,.335-1.338,6.313,6.313,0,0,0-.422-.723c-1.068-1.689-2.148-3.374-3.208-5.066-.588-.941-.912-.8-1.716-.538-.224.071-.3.062-.42-.12-.457-.686-.467-.69.26-1.1a79.3,79.3,0,0,0,7.478-4.8c.245-.179.38-.206.584.071.582.787,1.2,1.548,1.812,2.311.141.177.177.3-.058.4a.89.89,0,0,0-.1.069c-.231.158-.457.426-.7.438-.226.013-.362-.347-.557-.524a1.5,1.5,0,0,0-1.9-.189c-.659.418-1.288.889-1.939,1.324-.156.1-.152.183-.064.33q.732,1.2,1.446,2.408c.093.156.17.183.326.075.218-.15.453-.276.681-.413a1.152,1.152,0,0,0,.517-1.727c-.16-.3-.064-.393.175-.528.513-.287.509-.3.819.193.617.968,1.22,1.943,1.855,2.9.181.272.148.409-.135.522a.493.493,0,0,0-.143.089c-.287.262-.465.229-.688-.125a1.01,1.01,0,0,0-1.548-.351c-.36.208-.879.384-1,.7-.116.3.355.667.561,1.008.285.48.588.95.893,1.419.283.438.54.573,1.031.407a6.436,6.436,0,0,0,2.657-1.614,1.89,1.89,0,0,0,.521-1.4" transform="translate(-122.302 -271.728)"></path>
    <path class="cls-6" d="M250.289,406.9a3.889,3.889,0,0,1,.671-1.731c1-1.6,2.011-3.2,3.011-4.8a4.132,4.132,0,0,0,.347-.667,1.013,1.013,0,0,0-.517-1.473c-.22-.123-.224-.2-.1-.4.449-.709.44-.713,1.13-.268q2.151,1.385,4.3,2.768c.492.318.463.3.177.783-.233.4-.43.486-.86.235-.542-.318-.985-.137-1.376.465-.833,1.278-1.652,2.562-2.475,3.846a12.864,12.864,0,0,0-1,1.695,2.044,2.044,0,0,0,.085,1.97,2.924,2.924,0,0,0,2.518,1.573,2.716,2.716,0,0,0,2.543-1.5c.916-1.664,1.795-3.349,2.664-5.037.467-.906.293-1.376-.617-1.857-.154-.081-.181-.154-.12-.318.308-.827.3-.829,1.091-.459,1.124.526,2.248,1.06,3.379,1.575.249.112.37.218.179.474a.607.607,0,0,0-.089.189c-.123.4-.268.571-.756.357a1.2,1.2,0,0,0-1.6.7c-.85,1.6-1.679,3.219-2.537,4.82a4.492,4.492,0,0,1-3.167,2.46,4.038,4.038,0,0,1-2.155-.154,8.462,8.462,0,0,1-4.087-3.019,3.427,3.427,0,0,1-.648-2.225" transform="translate(-122.302 -271.728)"></path>
    <path class="cls-6" d="M294.348,410.388c0,.615-.01,1.232.006,1.849,0,.208-.058.287-.264.328-.981.195-.987.2-1.234-.779a2.989,2.989,0,0,0-2.726-2.446,2.891,2.891,0,0,0-3.1,1.616,6.374,6.374,0,0,0-.008,6.192,3.289,3.289,0,0,0,3.532,1.556,4.391,4.391,0,0,0,3.034-1.831c.195-.266.326-.276.588-.087.779.557.787.542.135,1.27a6.178,6.178,0,0,1-4.812,1.986,6.79,6.79,0,0,1-4.3-1.282,6.024,6.024,0,0,1-1.656-7.212,6.145,6.145,0,0,1,8.683-2.876,2.134,2.134,0,0,1,.289.168c.2.158.3.112.393-.116.062-.164.089-.418.266-.447a4.724,4.724,0,0,1,1-.01c.156.01.106.174.108.274,0,.617,0,1.234,0,1.849Z" transform="translate(-122.302 -271.728)"></path>
    <path class="cls-7" d="M259.646,399.252a.952.952,0,0,1-.931-1.02.925.925,0,0,1,.97-.931.988.988,0,0,1,.979.947,1.015,1.015,0,0,1-1.018,1" transform="translate(-122.302 -271.728)"></path>
    <path class="cls-8" d="M262.406,398.984a1.006,1.006,0,0,1,1.014.962,1.034,1.034,0,0,1-1,.989.971.971,0,0,1-.972-.993.949.949,0,0,1,.954-.958" transform="translate(-122.302 -271.728)"></path>
    <path class="cls-6" d="M338.4,350.985a50.173,50.173,0,1,1-50.174-50.16,50.167,50.167,0,0,1,50.174,50.16" transform="translate(-122.302 -271.728)"></path>
    <path class="cls-9" d="M349.322,320.047a2.449,2.449,0,0,1-1.681,2.246,1.771,1.771,0,0,1-2.072-.673,11.5,11.5,0,0,1-1.064-1.648c-.094-.156-.033-.218.089-.295,1.089-.7,2.178-1.409,3.268-2.113.087-.056.185-.158.27.006a10.014,10.014,0,0,1,1.132,2.134,3.058,3.058,0,0,1,.06.343" transform="translate(-122.302 -271.728)"></path>
    <path class="cls-9" d="M296.188,289.257c-1.056-.1-2.055-.2-3.054-.295-.264-.023-.2-.145-.123-.3.362-.738.717-1.479,1.074-2.219.368-.76.734-1.521,1.149-2.379.328,1.785.636,3.46.954,5.2" transform="translate(-122.302 -271.728)"></path>
    <path class="cls-9" d="M236.889,307.48c1.594.684,3.063,1.319,4.534,1.945.181.077.185.148.062.295q-.888,1.061-1.756,2.138c-.12.147-.187.17-.293-.015-.823-1.421-1.656-2.838-2.547-4.363" transform="translate(-122.302 -271.728)"></path>
    <path class="cls-9" d="M230.695,322.624a5.853,5.853,0,0,1-.669,1.968c-.062.158-.162.1-.27.054q-2-.865-4-1.716c-.185-.079-.216-.158-.135-.339.141-.32.254-.65.382-.975a1.784,1.784,0,0,1,2.223-1.218,3.889,3.889,0,0,1,1.837.866,1.722,1.722,0,0,1,.634,1.361" transform="translate(-122.302 -271.728)"></path>
    <path class="cls-10" d="M253.759,384.685a38.231,38.231,0,0,1-3.576-4.06,47.7,47.7,0,0,1-8.964-18.862,46.993,46.993,0,0,1-.987-15.309,47.478,47.478,0,0,1,16.1-31.6,48.207,48.207,0,0,1,79.942,40.192,47.716,47.716,0,0,1-11.251,27.105,33.455,33.455,0,0,1-2.828,3.04.172.172,0,0,1-.075-.1.681.681,0,0,0-.322-.513,113.644,113.644,0,0,0-11.394-7.883c-3.817-2.236-7.617-4.507-11.557-6.524-.575-.293-.611-.447-.264-.96a3.271,3.271,0,0,0,.526-1.492,2.725,2.725,0,0,1,.7-1.361.418.418,0,0,1,.418-.131,1.574,1.574,0,0,1,1.118.59,4.651,4.651,0,0,0,2.714,1.633,10.2,10.2,0,0,0,2.456.266,5.4,5.4,0,0,1,2.512.584c1.224.623,2.371,1.382,3.586,2.018a3.45,3.45,0,0,0,5.4-2.5,6.263,6.263,0,0,0-1.184-4.357,5.993,5.993,0,0,1-.975-1.984,3.884,3.884,0,0,1-.094-1,2.7,2.7,0,0,0-.407-1.477,17.454,17.454,0,0,0-1.936-2.527c-.505-.6-1.112-1.107-1.585-1.737-.341-.455-.343-.64.064-1.049a3.1,3.1,0,0,0,.762-1.043,1.5,1.5,0,0,0-.686-1.862c-.522-.278-.547-.347-.1-.762a1.242,1.242,0,0,0,.393-1.467,9.13,9.13,0,0,1-.335-1.344c-.1-.517.087-.721.6-.667a3.236,3.236,0,0,0,.627.012,2.342,2.342,0,0,0,1.988-2.219,1.434,1.434,0,0,0-.272-.995c-.682-1.012-1.257-2.088-1.874-3.137a22,22,0,0,0-2.98-3.894,5.955,5.955,0,0,0-.825-.713.932.932,0,0,1-.4-.989,4.489,4.489,0,0,0-.438-2.853,4.229,4.229,0,0,1-.4-1.623,4.545,4.545,0,0,0-1.242-2.7,3.177,3.177,0,0,1-.249-.285.65.65,0,0,1,.428-1.066,5.874,5.874,0,0,0,.571-.143,1.863,1.863,0,0,0,1.305-2.576,6.033,6.033,0,0,0-1.949-2.741,5.321,5.321,0,0,0-2.317-1.047,21.053,21.053,0,0,1-3.445-.916c-.507-.206-.97-.511-1.481-.7a13.717,13.717,0,0,0-4.3-.864,4.033,4.033,0,0,1-1.9-.536,8.354,8.354,0,0,0-3.9-1.174c-1.44-.042-2.88-.226-4.316-.141a29.666,29.666,0,0,0-7.035,1.114,26.378,26.378,0,0,0-3.991,1.43,21.83,21.83,0,0,0-4.773,3.177,15.774,15.774,0,0,0-2.9,3.46,7.29,7.29,0,0,0-1.058,3.752,1.807,1.807,0,0,1-.578,1.38,12.93,12.93,0,0,0-2.757,4.127,7.887,7.887,0,0,0-.461,2.506,4.993,4.993,0,0,0,.216,2.113,2.079,2.079,0,0,1-.256,1.747,11.7,11.7,0,0,0-1.546,3.838,9.969,9.969,0,0,0,.47,4.675,10.786,10.786,0,0,0,1.4,2.574,1.693,1.693,0,0,0,.38.389,13.517,13.517,0,0,0,1.963,1.215,6.5,6.5,0,0,0,1.739.467.807.807,0,0,1,.717.7,11.911,11.911,0,0,0,.827,2.286,2.432,2.432,0,0,0,.927,1.064,15.446,15.446,0,0,0,1.824,1.118c.231.116.546.233.467.561s-.414.378-.715.4a1.431,1.431,0,0,1-.611-.127c-1.8-.671-3.534-1.486-5.269-2.308-1.936-.918-3.8-1.978-5.762-2.844a26.038,26.038,0,0,0-2.857-1.107,1.448,1.448,0,0,0-2.069,1.191,9.339,9.339,0,0,0-.237,2.165,36.35,36.35,0,0,0,1.88,12.059,19.314,19.314,0,0,0,1.714,3.642,4.508,4.508,0,0,1,.769,2.578,2.212,2.212,0,0,1-.2.85c-1.135,2.348-2.036,4.795-3.073,7.183a2.4,2.4,0,0,1-.557,1.058" transform="translate(-122.302 -271.728)"></path>
    <path class="cls-3" d="M322.148,385.093c.015.033.033.066.048.1a42.556,42.556,0,0,1-5.334,4.6,47.787,47.787,0,0,1-19.585,8.577,46.153,46.153,0,0,1-10.233.835,47.811,47.811,0,0,1-30.026-11.459,30.624,30.624,0,0,1-2.828-2.626.808.808,0,0,1,.123-.561c.908-2.153,1.8-4.316,2.7-6.472.152-.362.328-.713.511-1.058a3.433,3.433,0,0,0,.131-3.077,9.08,9.08,0,0,0-.625-1.284,22,22,0,0,1-2.522-6.69,36.888,36.888,0,0,1-.829-5.305,21.7,21.7,0,0,1,.06-5.149,2.825,2.825,0,0,1,.164-.607.99.99,0,0,1,1.307-.667,21.3,21.3,0,0,1,3.553,1.394c2.34,1.147,4.648,2.356,6.994,3.486a57.839,57.839,0,0,0,9.818,3.912,25.216,25.216,0,0,0,5.082.864c.193.012.5.1.549-.152.048-.231-.256-.3-.436-.386-1.469-.734-3.025-1.253-4.554-1.841a14.948,14.948,0,0,1-1.681-.655c-.156-.083-.372-.164-.3-.393s.3-.189.472-.166a7.266,7.266,0,0,1,2.051.413,1.276,1.276,0,0,0,.775.127c.125-.027.253-.071.283-.216a.306.306,0,0,0-.139-.289,2.809,2.809,0,0,1-.486-.459.431.431,0,0,1-.1-.43c.077-.17.251-.156.4-.16a4.416,4.416,0,0,1,.819.168c.1.014.193.044.291.052.162.012.386.094.463-.071.089-.189-.15-.26-.27-.362-.206-.177-.549-.3-.441-.638s.465-.243.731-.243a12.4,12.4,0,0,1,1.334.133c.162.019.332.073.482-.054-.027-.187-.191-.231-.318-.3a1.99,1.99,0,0,1-.611-.505c-.235-.295-.162-.532.2-.623a2.666,2.666,0,0,1,1.323.129,2.169,2.169,0,0,0,.7.12c.133-.01.312.023.351-.15.031-.148-.125-.2-.231-.264s-.2-.093-.3-.154c-.145-.1-.272-.21-.243-.4a.436.436,0,0,1,.33-.345.943.943,0,0,1,.536-.077.7.7,0,0,0,.846-.441,2.374,2.374,0,0,1,.792-.85,2.526,2.526,0,0,1,1.762-.407,4.065,4.065,0,0,1,2.18,1,1.414,1.414,0,0,1,.507,1.029c.035,1.149.258,2.281.274,3.428a1.337,1.337,0,0,0,.783,1.323,2.44,2.44,0,0,1,.883.628c.222.28.166.432-.17.557-.168.064-.453,0-.457.27,0,.227.218.349.4.449a6.38,6.38,0,0,1,1.145.7c.133.116.355.224.254.428s-.343.125-.53.079a7.538,7.538,0,0,1-.879-.285,3.13,3.13,0,0,0-1.355-.226c-.2.015-.422.023-.488.249-.071.251.158.345.324.424.709.335,1.432.64,2.151.952,1.413.611,2.82,1.236,4.247,1.818a2.194,2.194,0,0,1,.511.289c.177.137.386.281.295.546-.081.235-.316.251-.53.253a4.671,4.671,0,0,1-2.385-.569,20.262,20.262,0,0,0-3.7-1.592,26.288,26.288,0,0,0-2.915-.8c-.258-.052-.615-.143-.706.152-.087.278.285.357.494.48a2.731,2.731,0,0,0,.542.227,89.227,89.227,0,0,1,9.865,3.933,66.942,66.942,0,0,1,6.483,3.447c2.2,1.315,4.444,2.549,6.614,3.91,2.751,1.723,5.517,3.428,8.164,5.315,1.174.837,2.4,1.6,3.549,2.471a1.979,1.979,0,0,0,.542.208" transform="translate(-122.302 -271.728)"></path>
    <path class="cls-9" d="M322.148,385.093a.424.424,0,0,1-.528-.042c-4.623-3.358-9.406-6.472-14.322-9.381q-3.268-1.935-6.56-3.827c-.63-.361-1.315-.623-1.957-.964a89.484,89.484,0,0,0-11.941-4.991,2.954,2.954,0,0,1-.972-.48c-.108-.093-.229-.195-.2-.347.033-.181.21-.2.359-.243a1.684,1.684,0,0,1,.869.077,24.246,24.246,0,0,1,6.24,2.29,4.947,4.947,0,0,0,2.495.627c.166,0,.372.025.432-.173s-.116-.3-.243-.4a2.463,2.463,0,0,0-.625-.343q-3.083-1.324-6.165-2.651a1.848,1.848,0,0,1-.26-.135c-.175-.11-.407-.21-.347-.465a.548.548,0,0,1,.544-.389,3.469,3.469,0,0,1,1.479.237,3.975,3.975,0,0,0,1.446.357,3.458,3.458,0,0,0-1.114-.85,2.505,2.505,0,0,1-.761-.511c-.264-.3-.2-.5.187-.582.183-.04.468.04.521-.166.066-.247-.214-.364-.387-.49a4.02,4.02,0,0,0-.679-.414,1.275,1.275,0,0,1-.752-1.207q-.121-1.778-.276-3.555a1.442,1.442,0,0,0-.559-1.089,3.939,3.939,0,0,0-2.31-.887,2.292,2.292,0,0,0-2.157,1.2c-.224.4-.447.717-.979.517a.656.656,0,0,0-.33.027c-.189.04-.424.058-.453.3s.2.274.355.359c.025.014.052.021.077.037.2.121.559.172.463.488-.089.287-.424.222-.667.2-.488-.042-.935-.283-1.434-.291-.253,0-.574-.073-.686.166-.131.278.2.424.382.573a7.057,7.057,0,0,0,.607.368c.112.073.272.154.216.32-.048.139-.21.123-.332.112-.418-.035-.835-.089-1.253-.121-.291-.023-.586-.027-.879-.029-.112,0-.239.019-.287.135-.058.148.062.235.158.312.187.147.387.278.573.424.108.087.243.187.177.347-.056.137-.208.118-.334.121a4.854,4.854,0,0,1-1.274-.231c-.181-.044-.441-.152-.546.033-.125.218.129.364.27.509.116.121.258.214.386.324a.4.4,0,0,1,.187.4c-.044.2-.222.241-.384.276a1.476,1.476,0,0,1-.939-.143,6.3,6.3,0,0,0-2.09-.4c-.106-.01-.26-.039-.3.091s.116.177.21.222c.781.38,1.619.615,2.427.929,1.2.467,2.408.9,3.582,1.432a8.119,8.119,0,0,1,.769.428.268.268,0,0,1,.152.278c-.027.133-.15.164-.256.187a3.363,3.363,0,0,1-1.211.019,38.649,38.649,0,0,1-9.192-2.518c-3.474-1.457-6.836-3.135-10.191-4.839a36.373,36.373,0,0,0-4.912-2.155c-.04-.014-.077-.033-.118-.046-1.049-.349-1.515-.062-1.691,1.043a18.7,18.7,0,0,0-.15,3.939,37.737,37.737,0,0,0,1.243,7.856,20.251,20.251,0,0,0,2.138,5.269,5.725,5.725,0,0,1,.983,2.691,3,3,0,0,1-.283,1.469c-1.276,2.631-2.286,5.379-3.443,8.06-.05.116-.106.227-.16.341a1.718,1.718,0,0,1-.432-.436q1.489-3.583,2.982-7.164a8.137,8.137,0,0,1,.4-.787,2.819,2.819,0,0,0,.106-2.547,6.723,6.723,0,0,0-.48-1.026,22.976,22.976,0,0,1-2.8-7.465,35.288,35.288,0,0,1-.86-8.245,11.341,11.341,0,0,1,.218-2.209c.31-1.378,1.058-1.789,2.406-1.342a40.547,40.547,0,0,1,5.969,2.668c1.849.966,3.748,1.822,5.637,2.7.748.347,1.531.615,2.3.914a.984.984,0,0,0,.775-.008c.131-.058.27-.127.287-.281s-.135-.231-.253-.3c-.339-.193-.675-.4-1.031-.561a5.067,5.067,0,0,1-2.763-3.871c-.129-.547-.33-.817-.9-.883a7.637,7.637,0,0,1-3.532-1.641,1.8,1.8,0,0,1-.38-.386,10.116,10.116,0,0,1-2.02-6.772,4.387,4.387,0,0,1,.258-1.355,16.407,16.407,0,0,1,1.579-3.418,1.166,1.166,0,0,0,.123-1.08,8.365,8.365,0,0,1-.035-4.307,6.731,6.731,0,0,1,.69-1.567,9.858,9.858,0,0,1,2.321-3.258,1.613,1.613,0,0,0,.54-1.3,8.236,8.236,0,0,1,2.015-5.219,17.869,17.869,0,0,1,5.036-4.322,24.721,24.721,0,0,1,9.148-3.119,25.4,25.4,0,0,1,4.968-.4c1.3.058,2.6.064,3.9.226a8.683,8.683,0,0,1,3.314,1.245,2.541,2.541,0,0,0,1.224.37,12.988,12.988,0,0,1,5.7,1.349,16.26,16.26,0,0,0,4.014,1.166,5.719,5.719,0,0,1,4.266,3.89c.532,1.5-.243,2.51-1.953,2.828-.15.029-.4-.066-.422.164-.031.264-.141.578.094.8a4.835,4.835,0,0,1,1.536,3.343,3.559,3.559,0,0,0,.418,1.4,4.1,4.1,0,0,1,.37,2.574,1.066,1.066,0,0,0,.438,1.11,17.475,17.475,0,0,1,3.649,4.411c.661,1.087,1.261,2.213,1.968,3.273a1.862,1.862,0,0,1,.093,1.845,2.281,2.281,0,0,1-1.993,1.562,2.521,2.521,0,0,1-.58-.046c-.42-.048-.553.083-.467.492a7.318,7.318,0,0,0,.307,1.218,1.491,1.491,0,0,1-.519,1.893c-.226.181-.26.229.064.378a1.626,1.626,0,0,1,.507,2.712,6.391,6.391,0,0,1-.594.594.342.342,0,0,0-.04.519c.208.262.418.526.644.775a30.165,30.165,0,0,1,2.63,3.044,4.169,4.169,0,0,1,.868,2.61,3.121,3.121,0,0,0,.63,1.92,8.416,8.416,0,0,1,1.477,2.99,4.2,4.2,0,0,1-.27,3.26,4.06,4.06,0,0,1-1.413,1.567,3.786,3.786,0,0,1-3.765-.2c-1.108-.565-2.144-1.263-3.243-1.849a6.089,6.089,0,0,0-2.975-.729,7.622,7.622,0,0,1-4.021-.985,3.082,3.082,0,0,1-1.041-.956,1.557,1.557,0,0,0-1.155-.588.205.205,0,0,0-.224.085,2.9,2.9,0,0,0-.677,1.324,3.115,3.115,0,0,1-.677,1.733c-.172.214-.145.335.071.459.147.081.293.164.441.245a186.559,186.559,0,0,1,16.763,9.9c2.115,1.446,4.141,3.015,6.2,4.544.175.129.355.266.131.5" transform="translate(-122.302 -271.728)"></path>
    <path class="cls-9" d="M269.173,371.336a45.475,45.475,0,0,1,9.356,1.12,153.839,153.839,0,0,1,18.5,5.1c2.487.848,4.98,1.693,7.378,2.778.227.1.447.226.667.349a.27.27,0,0,1,.162.274c-.023.125-.148.164-.254.193a2.584,2.584,0,0,1-1.563-.1c-1.922-.688-3.852-1.348-5.824-1.876a56.51,56.51,0,0,0-9.6-1.731,15.676,15.676,0,0,0-4.289.326,2.068,2.068,0,0,1-.916,0c-.253-.067-.326-.222-.123-.422.179-.177.382-.328.563-.5.106-.1.285-.212.2-.378s-.274-.075-.414-.033c-.852.27-1.7.546-2.556.815a2.491,2.491,0,0,1-.864.15c-.164-.006-.364.037-.449-.15-.093-.206.085-.335.206-.463a2.867,2.867,0,0,1,.977-.709c.2-.081.5-.224.42-.441s-.4-.118-.6-.062a14.48,14.48,0,0,0-2.99,1.309c-.062.035-.12.073-.181.108-.384.214-.744.2-.856-.06-.16-.376.154-.528.391-.682a3.83,3.83,0,0,0,.918-.788c.058-.071.145-.158.075-.26s-.177-.048-.27-.017a12.165,12.165,0,0,0-2.234,1.147c-.509.289-.993.627-1.481.952a1.314,1.314,0,0,1-.825.256c-.361-.023-.472-.256-.241-.536a9.089,9.089,0,0,1,.681-.682,4.974,4.974,0,0,0,.754-.844c.081-.123.229-.27.11-.409-.11-.123-.295-.05-.434.01a7.575,7.575,0,0,0-.758.361c-.891.5-1.772,1.014-2.666,1.508-.208.116-.492.347-.681.143-.168-.181.11-.422.206-.628s.226-.387.31-.594a.358.358,0,0,0-.037-.432.389.389,0,0,0-.4-.027,3.066,3.066,0,0,0-1.089.615,31.24,31.24,0,0,1-3.246,2.163c-.237.158-.584.455-.821.212s.11-.551.254-.8c.173-.3.409-.569.586-.869.235-.4.081-.7-.366-.648a2.1,2.1,0,0,0-1.635.692,1.757,1.757,0,0,1-2.142-.008,2.618,2.618,0,0,1-.756-2.863,2.716,2.716,0,0,1,1.2-1.245,9.036,9.036,0,0,1,3.468-1.055,28.914,28.914,0,0,1,4.185-.26" transform="translate(-122.302 -271.728)"></path>
    <path class="cls-9" d="M285.284,379.689a33.026,33.026,0,0,1,3.522.037c.123.015.3,0,.326.137.039.179-.162.2-.276.26a1.3,1.3,0,0,1-.654.11,66.17,66.17,0,0,0-19.862,3.027,48.13,48.13,0,0,0-8.135,3.445,5.616,5.616,0,0,1-2.514.866,2.84,2.84,0,0,1-.544-.023.458.458,0,0,1-.4-.642,1.719,1.719,0,0,1,.9-1.045,49.829,49.829,0,0,1,5.689-2.466,47.463,47.463,0,0,1,8.829-2.606q3.207-.549,6.447-.808c2.219-.175,4.442-.262,6.666-.291" transform="translate(-122.302 -271.728)"></path>
    <path class="cls-9" d="M260.1,389.324c-.231-.012-.538.048-.6-.253a.744.744,0,0,1,.453-.821c.906-.467,1.814-.937,2.739-1.367a57.206,57.206,0,0,1,14.162-4.291,24.749,24.749,0,0,1,4.54-.49c.239,0,.648-.042.655.162.01.253-.382.227-.623.264a71.9,71.9,0,0,0-10.227,2.246,51.7,51.7,0,0,0-7.925,3.3,22.773,22.773,0,0,1-2.319,1.076,2.228,2.228,0,0,1-.86.17" transform="translate(-122.302 -271.728)"></path>
    <path class="cls-11" d="M279.378,360.779c.378.019.628.312.908.524.172.131-.015.528-.227.488a2.765,2.765,0,0,1-1.27-.353c-.3-.231-.291-.334.05-.526a2.192,2.192,0,0,1,.54-.133" transform="translate(-122.302 -271.728)"></path>
    <path class="cls-3" d="M287.586,316.842a17.66,17.66,0,0,1,3.838.4,4.11,4.11,0,0,1,1.563.584,5.483,5.483,0,0,0,3.044.79,8.343,8.343,0,0,1,4.359,1.3,7.908,7.908,0,0,0,2.759.823,9.45,9.45,0,0,1,2.306.59,3.547,3.547,0,0,1,1.114.731,10.8,10.8,0,0,1,1.635,1.961,1.662,1.662,0,0,1-.86,2.549,2.25,2.25,0,0,1-2.857-.783,7.45,7.45,0,0,0-.9-.993.566.566,0,0,0-.569-.193c-.249.066-.388.185-.239.482a9.979,9.979,0,0,1,.684,1.1c.05.147.143.291-.025.414-.147.108-.27.006-.376-.079a14.064,14.064,0,0,1-1.159-1.369,2.2,2.2,0,0,0-.615-.557.326.326,0,0,0-.239-.033c-.106.054-.062.175-.037.264a5.044,5.044,0,0,0,.5.918c.081.147.177.285.258.432.06.11.131.237-.006.335a.293.293,0,0,1-.355-.012,1.835,1.835,0,0,1-.6-.634,1.2,1.2,0,0,0-.438-.5.358.358,0,0,0-.4,0c-.156.1-.029.218,0,.33.426,1.519,1.589,1.9,2.977,1.92a8.106,8.106,0,0,1,1.916.181,3.585,3.585,0,0,1,2.608,3.453,3.944,3.944,0,0,0,.362,1.749,3.493,3.493,0,0,1,.316,2.674.894.894,0,0,0,.27.96,5,5,0,0,0,.771.646,8.965,8.965,0,0,1,2.633,3.058c.829,1.309,1.525,2.7,2.45,3.956a1.647,1.647,0,0,1-1.232,2.6,4.657,4.657,0,0,1-1.461-.052,4.169,4.169,0,0,0-2.07.1,1.146,1.146,0,0,1-1.284-.27,1.085,1.085,0,0,1-.285-1.3,1.488,1.488,0,0,1,.792-.7c.1-.046.216-.056.32-.1.189-.075.378-.172.345-.414-.031-.218-.226-.27-.409-.3a1.388,1.388,0,0,0-1.637.8,19.081,19.081,0,0,0-1.145,3.1c-.037.12-.114.308.064.368a.491.491,0,0,0,.574-.15c.362-.594.868-.517,1.4-.36a1.915,1.915,0,0,0,1.028.027,4.712,4.712,0,0,1,1.627.033.532.532,0,0,1,.49.453c.1.563.212,1.128.262,1.7a.88.88,0,0,1-.908,1.062c-.6.058-1.2.062-1.8.083a.5.5,0,0,1-.447-.175.454.454,0,0,0-.833.087c-.16.295-.307.6-.443.9-.1.22-.2.476.014.663.193.17.411,0,.574-.11a4.057,4.057,0,0,1,3.433-.307,1.211,1.211,0,0,1,.532,2c-.039.042-.079.081-.12.118-.96.85-.991,1.132-.172,2.144a5.751,5.751,0,0,0,.912.925,9.781,9.781,0,0,1,1.845,1.943,5.582,5.582,0,0,1,1.029,2.533,8.317,8.317,0,0,0,1.446,3.715,4.46,4.46,0,0,1,.763,3.563,2.622,2.622,0,0,1-3.385,2.256,8.806,8.806,0,0,1-2.6-1.134c-.528-.3-.547-.806-.16-1.278a1.307,1.307,0,0,0,.341-.708,1.99,1.99,0,0,1,.5-1.134,1.265,1.265,0,0,0,.129-1.712,9.4,9.4,0,0,1-.648-1.716c-.062-.152-.067-.413-.328-.347a.39.39,0,0,0-.266.468,11,11,0,0,0,.175,1.284,2.268,2.268,0,0,1-.191,1.623,17.076,17.076,0,0,0-.846,1.587c-.195.515-.58.619-1.143.488-.476-.112-.962-.185-1.442-.272a.536.536,0,0,1-.436-.821,18.673,18.673,0,0,1,.972-1.71,3.4,3.4,0,0,0,.4-1.65q-.006-.778.008-1.554a2.261,2.261,0,0,0-.226-1.014.375.375,0,0,0-.472-.241c-.266.06-.173.26-.148.4a2.3,2.3,0,0,1-.044.873,3.842,3.842,0,0,0,.046,1.376,1.191,1.191,0,0,1-.206.871,8.638,8.638,0,0,0-1.253,2.5,1.129,1.129,0,0,1-1.509.785,9.9,9.9,0,0,1-2.493-.974,1.662,1.662,0,0,1-.627-.654c-.254-.478-.563-.918-1.207-.887a.5.5,0,0,1-.33-.158,4.02,4.02,0,0,0-1.93-.852,2.947,2.947,0,0,1-1.535-.972c-.185-.172-.083-.416.062-.573.995-1.068,1.269-2.541,2.1-3.711a8.7,8.7,0,0,0,.831-1.916c.131-.339.027-.44-.328-.37a1.2,1.2,0,0,0-.686.447,16.546,16.546,0,0,0-1.745,2.959c-.147.27-.281.548-.428.817-.073.137-.129.32-.249.384-.528.293-.665.835-.9,1.317-.06.121-.131.289-.293.258s-.145-.222-.164-.353a1.956,1.956,0,0,1,.646-1.964,2.21,2.21,0,0,0,.814-1.6,1.61,1.61,0,0,1,.563-1.136,6.066,6.066,0,0,0,1.668-2.722c.083-.247.1-.507-.154-.627s-.4.112-.549.278a.359.359,0,0,0-.081.145,4.405,4.405,0,0,1-1.367,2.022,2.7,2.7,0,0,0-.806,1.583,1.971,1.971,0,0,1-.736,1.278,2.338,2.338,0,0,0-.731,1.141c-.11.337-.162.792-.565.868s-.605-.349-.839-.611a4.075,4.075,0,0,1-.9-1.644,1.171,1.171,0,0,1,.4-1.319,5.811,5.811,0,0,0,1.481-1.8,7.915,7.915,0,0,1,1.2-1.837,6.79,6.79,0,0,0,.831-1.4c.066-.114.114-.237.017-.353a.326.326,0,0,0-.389-.062,1.5,1.5,0,0,0-.636.534c-.81,1.043-1.764,1.951-2.658,2.917-.172.183-.438.476-.6.359-.191-.141.056-.447.15-.663a2.94,2.94,0,0,1,.555-.787c.58-.627,1.147-1.263,1.735-1.882a6.493,6.493,0,0,0,.81-1.17.439.439,0,0,0-.039-.578c-.191-.191-.378-.039-.519.083a6.97,6.97,0,0,1-1.336.856c-.457.241-.725.729-1.089,1.1-.177.177-.351.36-.542.524-.116.1-.264.191-.414.064-.175-.15-.064-.312.025-.449a1.992,1.992,0,0,1,.293-.355,3.918,3.918,0,0,0,.783-.979,1.558,1.558,0,0,1,.638-.59,1.617,1.617,0,0,0,.881-1.114,1,1,0,0,1,.179-.328c.052-.081.129-.15.177-.233.137-.241.239-.54.031-.736-.233-.222-.528-.04-.7.154-.33.378-.681.734-1.01,1.11a2.218,2.218,0,0,1-.972.548c-.179.069-.264-.031-.195-.224a1.583,1.583,0,0,1,.418-.715,7.458,7.458,0,0,0,1.548-2.508.261.261,0,0,0-.1-.366.447.447,0,0,0-.576.087,4.263,4.263,0,0,1-.858.733,6.541,6.541,0,0,1-.636.32.254.254,0,0,1-.341-.06c-.073-.116.019-.218.091-.3q.8-.891,1.61-1.772a2.079,2.079,0,0,0,.386-.494c.04-.089.106-.189.037-.276s-.183-.058-.278-.042a2.725,2.725,0,0,0-1.026.547c-.2.127-.422.436-.648.206s.089-.443.224-.63a10.39,10.39,0,0,1,2.323-2.29,3.636,3.636,0,0,0,.76-.835c.071-.1.166-.21.087-.343s-.218-.11-.343-.11a1.485,1.485,0,0,0-.85.32,3.489,3.489,0,0,1-.895.453c-.093.031-.185.085-.268-.015a.266.266,0,0,1-.01-.314,1.135,1.135,0,0,1,.355-.349c.378-.291.76-.574,1.124-.879.162-.135.308-.326.187-.549-.129-.239-.355-.166-.561-.1l-1.242.38c-.11.035-.226.069-.307-.042s-.008-.214.058-.307a2.51,2.51,0,0,1,.929-.767,3.584,3.584,0,0,0,.958-.6c.185-.183.407-.418.241-.692s-.449-.135-.686-.054a1.6,1.6,0,0,1-.69.152c-.137-.013-.307.023-.374-.127s.05-.295.15-.407a3.457,3.457,0,0,1,.8-.605c.542-.322.546-.441.021-.788a.758.758,0,0,1-.123-1.147,6.773,6.773,0,0,1,2.516-2.111,2.309,2.309,0,0,0,.761-.43c.079-.071.224-.116.185-.251s-.191-.15-.312-.166a3.254,3.254,0,0,0-1.126.094,22.853,22.853,0,0,0-5.681,1.993c-.114.058-.314.085-.243.276.064.172.258.177.4.135.563-.16,1.122-.339,1.681-.517.32-.1.636-.214.954-.316.214-.069.432-.1.534.16s-.06.4-.254.513a8.85,8.85,0,0,1-1.872.835,1.339,1.339,0,0,0-.6.28c-.1.1-.231.195-.172.353.054.139.2.135.33.135.307,0,.615,0,.923-.012.21-.006.409.013.453.264s-.179.287-.341.343c-1.378.465-2.736.989-4.143,1.361-.216.058-.515.2-.636-.077-.143-.322.16-.468.4-.588a13.612,13.612,0,0,1,2.088-.974c.143-.044.334-.091.31-.287-.027-.216-.231-.22-.4-.218a7.678,7.678,0,0,0-3.017.638c-.9.388-1.77.837-2.66,1.245a9.924,9.924,0,0,0-1.623,1.107c-.224.162-.409.4-.229.636.172.216.488.131.682-.039a5.554,5.554,0,0,1,1.685-.827,2.157,2.157,0,0,1,.781-.137c.11,0,.235-.033.289.1a.285.285,0,0,1-.11.335,2.429,2.429,0,0,1-.393.233,6.1,6.1,0,0,0-2.448,1.781,5.434,5.434,0,0,0-.715,1.411,16.728,16.728,0,0,1-.781,1.9,1.5,1.5,0,0,1-.864.821,5.42,5.42,0,0,0-2.94,2.793,5.374,5.374,0,0,1-2.626,2.25,2.046,2.046,0,0,1-1.972-.073,1.45,1.45,0,0,1-.79-1.3,3.538,3.538,0,0,1,.141-1.411.342.342,0,0,0-.22-.505.457.457,0,0,0-.609.168,3.056,3.056,0,0,0-.28,2.776,2.656,2.656,0,0,0,2.047,1.479,5.2,5.2,0,0,0,1.943-.256.4.4,0,0,1,.432.054c.152.133.214.247-.031.374a4.45,4.45,0,0,1-3.921.11,2.035,2.035,0,0,1-1.037-1.043,5.71,5.71,0,0,1-.254-3.927c.021-.11.062-.216.075-.326a.482.482,0,0,0-.295-.511.36.36,0,0,0-.472.164,3.573,3.573,0,0,0-.723,1.673c-.031.335-.058.669-.1,1a.494.494,0,0,1-.563.494c-.339-.025-.287-.3-.32-.536a12.564,12.564,0,0,1,.093-1.924,1.193,1.193,0,0,1,.314-.761,4.359,4.359,0,0,0,.6-1.1c.075-.174.129-.368-.04-.5s-.349-.04-.507.06a2.062,2.062,0,0,0-.368.276,4.094,4.094,0,0,0-1.33,3.981c.054.245.1.492.145.74.017.106.042.237-.1.283a.28.28,0,0,1-.307-.083.977.977,0,0,1-.2-.268,4.128,4.128,0,0,1,.212-3.939,25.633,25.633,0,0,1,1.5-2.379.4.4,0,0,0-.3-.648.835.835,0,0,0-.661.2,6.281,6.281,0,0,0-2.62,4.65,4.494,4.494,0,0,0,2.192,4.386c.32.2.7.264,1.014.49.154.114.314.206.245.432a.429.429,0,0,1-.463.343,1.193,1.193,0,0,1-.251-.013,5.471,5.471,0,0,1-3.32-2.063,8.84,8.84,0,0,1-1.627-5.647,10.141,10.141,0,0,1,1.716-5.138,1.663,1.663,0,0,0,.224-1.71,5.744,5.744,0,0,1,.22-4.48,12.679,12.679,0,0,1,2.822-4.266.962.962,0,0,0,.37-.769,6.292,6.292,0,0,1,.95-3.555,15.329,15.329,0,0,1,6.017-5.986,27.53,27.53,0,0,1,8.38-2.963,20.821,20.821,0,0,1,3.048-.268,25.49,25.49,0,0,1,3.393-.066" transform="translate(-122.302 -271.728)"></path>
    <path class="cls-3" d="M285.049,341.33a3.311,3.311,0,0,1,3.036,1.936,2.068,2.068,0,0,1-.923,2.242c-.245.135-.505.241-.75.376a1.758,1.758,0,0,0-.488,2.495,1.053,1.053,0,0,0,.6.357c.42.1.839.21,1.261.307a1.748,1.748,0,0,1,1.475,2.111c-.025.179-.071.359-.079.538-.027.887-.617,1.243-1.365,1.384a1.755,1.755,0,0,1-1.941-.655,8.85,8.85,0,0,1-.952-1.768,8.9,8.9,0,0,0-1.579-2.452,6.5,6.5,0,0,1-1.562-3.553,2.714,2.714,0,0,1,1.139-2.4,2.892,2.892,0,0,1,2.124-.914" transform="translate(-122.302 -271.728)"></path>
    <path class="cls-3" d="M267.9,354.047a3.868,3.868,0,0,0,1.124,3.129,2.4,2.4,0,0,0,.758.511c.118.054.249.089.349-.023s.044-.241-.023-.349a4.709,4.709,0,0,1-.571-1.161,10.488,10.488,0,0,1-.195-1.619c-.029-.2.069-.291.274-.251a1.174,1.174,0,0,1,.324.081,2.523,2.523,0,0,0,2.034-.017.853.853,0,0,1,1.164.44,3.026,3.026,0,0,0,2.421,1.525,2.563,2.563,0,0,0,1.06-.193,3.893,3.893,0,0,0,2.554-2.63,2.763,2.763,0,0,0,.033-1.164c-.042-.343-.424-.443-.713-.2a1.152,1.152,0,0,0-.339.7,3.012,3.012,0,0,1-2.439,2.562,1.159,1.159,0,0,1-1.028-.174c-.233-.175-.476-.343-.7-.532a.372.372,0,0,1-.071-.528c.129-.156.308-.019.451.064.06.035.112.083.17.121,1.12.729,1.8.482,2.479-.65a6.667,6.667,0,0,0,.711-1.918,2.8,2.8,0,0,1,1.224-1.787,4.322,4.322,0,0,0,1.276-1.529c.05-.079.056-.21.177-.2s.143.123.191.2a.768.768,0,0,1,0,.86,6.115,6.115,0,0,1-1.143,1.334.62.62,0,0,0-.268.5c.044.54.384.708.842.4a14.2,14.2,0,0,0,1.045-.97c.147-.118.3-.339.492-.123.166.193.037.409-.129.551-.283.249-.586.476-.885.708a2.989,2.989,0,0,0-.717,2.024.245.245,0,0,0,.26.22.515.515,0,0,0,.524-.27,2.6,2.6,0,0,1,.576-.916c.177-.148.368-.274.557-.123.241.191.012.374-.1.538-.3.467-.756.815-1.033,1.317-.137.253-.5.268-.767.222a.545.545,0,0,0-.6.266,10.3,10.3,0,0,1-.893.941,3.766,3.766,0,0,1-2.855.991,3.063,3.063,0,0,1-2.549-1.116c-.212-.27-.38-.6-.779-.655-.316-.044-.424.077-.3.378a1.576,1.576,0,0,0,.2.364,6.36,6.36,0,0,0,2.017,1.747,1.589,1.589,0,0,0,.916.249c.166-.012.362-.015.361.235a.3.3,0,0,1-.353.326,4.289,4.289,0,0,1-1.425-.291,5.387,5.387,0,0,1-2.495-2.344,1.715,1.715,0,0,0-.127-.216.483.483,0,0,0-.54-.131c-.224.048-.206.251-.181.413a2.586,2.586,0,0,0,.692,1.5,4.892,4.892,0,0,1,.823,1.259c.139.268.025.366-.243.341a5.907,5.907,0,0,1-3.547-1.55,3.373,3.373,0,0,1-.7-1.6,3.436,3.436,0,0,1,.027-2.655c.077-.15.1-.389.349-.347s.251.26.247.465c-.006.253,0,.5,0,.756" transform="translate(-122.302 -271.728)"></path>
    <path class="cls-3" d="M279.331,347.775a1.5,1.5,0,0,1-.659,1.01,2.127,2.127,0,0,1-.432.256,2.891,2.891,0,0,0-1.531,1.982c-.179.544-.316,1.1-.511,1.637a1.751,1.751,0,0,1-1.633.842.37.37,0,0,1-.268-.295c-.046-.173.125-.191.235-.231.143-.054.3-.081.438-.139a1.029,1.029,0,0,0,.729-.975,3.554,3.554,0,0,1,1.207-2.5c.638-.646,1.324-1.243,1.993-1.857.081-.075.147-.233.308-.129.123.079.125.206.123.4" transform="translate(-122.302 -271.728)"></path>
    <path class="cls-3" d="M287.858,340.075c-.069-.01-.17.042-.208-.069a.226.226,0,0,1,.067-.231,2.731,2.731,0,0,1,1.348-.8,3.7,3.7,0,0,1,.623-.05.366.366,0,0,1,.4.293c.056.226-.145.222-.274.285a6.138,6.138,0,0,1-1.961.571" transform="translate(-122.302 -271.728)"></path>
    <path class="cls-9" d="M271,349.193c-.054-.546.37-.839.717-1.137.2-.17.4.029.457.256a4.115,4.115,0,0,1,.075.708c.019.258.166.366.4.291a2.065,2.065,0,0,0,1.232-.883c.212-.362.147-.457-.266-.478a7.832,7.832,0,0,1-1.708-.173,4.993,4.993,0,0,1-2.689-1.76c-.528-.671-1.1-1.307-1.658-1.953a1.283,1.283,0,0,1-.351-1.155,1.287,1.287,0,0,0-.669-1.419,4.814,4.814,0,0,1-1.569-1.361,3.928,3.928,0,0,1-.706-2.076,15.1,15.1,0,0,1,.229-3.048,3.442,3.442,0,0,1,.923-1.8q.833-.859,1.683-1.7a1.978,1.978,0,0,1,.788-.463c.12-.04.245-.087.351.027.125.133.042.264-.019.388a1.373,1.373,0,0,1-.393.43,6.2,6.2,0,0,0-2,6.7,1.449,1.449,0,0,0,.258.521c.172.218.378.49.661.463.264-.027.245-.37.324-.58a9.681,9.681,0,0,1,.983-2.036,3.41,3.41,0,0,1,1.681-1.5c.114-.037.233-.135.349-.015s.073.254.023.391a6.907,6.907,0,0,1-1.07,1.795c-.343.447-.588.95-.891,1.421-.15.231-.067.521-.106.783-.029.2.135.131.226.073a1.461,1.461,0,0,0,.4-.484,6.472,6.472,0,0,1,2.851-2.576c.15-.066.347-.272.467-.023s.382.538.067.837a4.351,4.351,0,0,1-.362.283,8.127,8.127,0,0,0-2.036,2.531,2.1,2.1,0,0,0-.422,1.317c.027.231.1.26.287.172a1.075,1.075,0,0,0,.428-.447,11.877,11.877,0,0,1,1.322-1.683c.239-.256.557-.576.895-.3.283.235,0,.586-.16.821-.588.868-1.232,1.7-1.745,2.616-.085.154-.243.295-.073.486s.33.308.521.015a21.128,21.128,0,0,1,1.762-2.188c.056-.064.108-.129.166-.189.143-.152.308-.268.517-.139a.392.392,0,0,1,.11.528,20.272,20.272,0,0,1-1.08,1.843,3.4,3.4,0,0,0-.628,1.488c0,.094-.06.2.05.264s.187-.023.26-.083a2.663,2.663,0,0,0,.44-.611,9.408,9.408,0,0,1,1.7-2.379,1.853,1.853,0,0,1,.224-.187.469.469,0,0,1,.517-.029c.148.106.064.295.023.43a3.68,3.68,0,0,1-.742,1.259,5.717,5.717,0,0,0-.983,1.97.441.441,0,0,0,.212.542c.179.1.326-.081.436-.229a.677.677,0,0,0,.1-.185,4.8,4.8,0,0,1,2.032-2.485c.532-.351.532-.463.152-.964a1.407,1.407,0,0,0-.3-.343,13.142,13.142,0,0,1-2.485-2.766.871.871,0,0,1-.191-.935.779.779,0,0,0-.125-.75,3.249,3.249,0,0,1-.42-2.926,4.128,4.128,0,0,1,1.558-2.024c.337-.247.744-.4,1.083-.64a4.041,4.041,0,0,1,2.331-.538c.131-.006.324-.012.366.133s-.131.233-.247.293a3.847,3.847,0,0,1-.692.3,7.223,7.223,0,0,0-3.275,2.525.876.876,0,0,0-.046.883c.069.227.254.1.38.027a4.474,4.474,0,0,0,.933-.779,6.7,6.7,0,0,1,3.551-1.855c.173-.037.384-.127.492.079a.416.416,0,0,1-.2.542,7.292,7.292,0,0,1-.767.43,9.565,9.565,0,0,0-3.117,2.755.366.366,0,0,0-.067.106c-.066.2-.193.438-.017.59.21.183.4-.033.53-.179a11.468,11.468,0,0,1,2.063-1.712,3.068,3.068,0,0,1,1.249-.567c.181-.033.42-.069.517.16.085.2-.079.337-.212.463q-1.258,1.206-2.52,2.408c-.2.195-.5.459-.314.692.17.206.443-.108.63-.243.6-.432,1.188-.891,1.774-1.344a3.76,3.76,0,0,1,1.157-.584c.195-.062.436-.112.567.118a.417.417,0,0,1-.145.526,12.464,12.464,0,0,1-1.249,1.055,7.424,7.424,0,0,0-1.544,1.525c-.066.081-.195.166-.079.283s.26.22.407.093a8.135,8.135,0,0,0,1.035-.848,3.919,3.919,0,0,1,1.627-1,.427.427,0,0,1,.54.093c.114.172-.058.312-.145.445a7.211,7.211,0,0,1-1.3,1.188c-.359.33-.74.638-1.116.95-.195.164-.3.362-.135.58.16.2.389.131.569.006.227-.16.43-.357.65-.528.156-.121.324-.243.522-.066s.145.343.037.528a12.4,12.4,0,0,1-.995,1.506,1.785,1.785,0,0,1-1.157.63,4.559,4.559,0,0,0-2.391,1.535c-.251.235-.077.532.008.785.044.131.195.058.293.008a7.092,7.092,0,0,0,1.535-1,3.523,3.523,0,0,1,1.617-.744c.359-.081.58.295.418.642a2.144,2.144,0,0,1-.754.831,4.406,4.406,0,0,1-.711.441,5.566,5.566,0,0,0-2.514,2.56,3.831,3.831,0,0,1-2.184,1.968,1.557,1.557,0,0,1-1.141.04,1.176,1.176,0,0,1-.842-1.274" transform="translate(-122.302 -271.728)"></path>
    <path class="cls-9" d="M304.394,334.023a12.519,12.519,0,0,1,2.5.378c.6.073.835.952.441,1.454a1.737,1.737,0,0,1-.638.536.682.682,0,0,0-.341.4c-.1.226-.017.291.183.353.147.044.387-.019.407.2a.4.4,0,0,1-.285.38c-.671.123-.731.634-.81,1.157a2.49,2.49,0,0,1-.16.432.384.384,0,0,0,.214.553c.293.11.28.3.15.492a3.259,3.259,0,0,1-1.7,1.365c-.114.039-.28.091-.351-.027s.064-.227.16-.3a3.565,3.565,0,0,0,.571-.669c.262-.347.235-.532-.089-.86a3.038,3.038,0,0,0-1.749-.721,8.306,8.306,0,0,0-2.711-.017c-.112.015-.278.083-.335-.062-.05-.127.073-.233.17-.312.388-.318.785-.628,1.172-.948.168-.139.316-.22.362.087.035.229.183.264.366.241a6.543,6.543,0,0,0,3.144-1.251.375.375,0,0,0-.141-.661,4.382,4.382,0,0,0-1.454-.145,19.767,19.767,0,0,0-4.116,1.12c-.179.06-.4.272-.551.012-.168-.281.039-.484.258-.623.438-.276.881-.544,1.338-.787,1.01-.542,2-1.122,3.042-1.6a1.505,1.505,0,0,1,.947-.172" transform="translate(-122.302 -271.728)"></path>
    <path class="cls-9" d="M268.61,328.144a4.193,4.193,0,0,1,.59-2.4,7.325,7.325,0,0,1,4.261-3.322c.127-.044.276-.152.378,0s0,.3-.1.418a1.86,1.86,0,0,1-.684.476,6.952,6.952,0,0,0-2.921,2.855c-.1.166-.181.345-.276.517-.075.135-.179.266-.033.414a.418.418,0,0,0,.5.077,1.133,1.133,0,0,0,.407-.414,4.72,4.72,0,0,1,2.044-1.689,1.432,1.432,0,0,1,.478-.145.367.367,0,0,1,.38.21c.06.143-.062.233-.154.312a4.589,4.589,0,0,1-.588.474,13.179,13.179,0,0,0-2.672,2.649c-.283.31-.389.761-.858.931a.382.382,0,0,1-.565-.212,2.842,2.842,0,0,1-.191-1.151" transform="translate(-122.302 -271.728)"></path>
    <path class="cls-9" d="M305.471,362.876a3.217,3.217,0,0,1-.549,1.515,6.562,6.562,0,0,0-.808,1.737,1.4,1.4,0,0,1-.5.76.517.517,0,0,1-.781-.054,16.926,16.926,0,0,1-1.126-1.76c-.118-.179-.012-.374.091-.549a15.051,15.051,0,0,0,1.014-1.964c.268-.7.571-1.382.866-2.071a2.706,2.706,0,0,1,.357-.661.376.376,0,0,1,.414-.125c.179.048.177.2.162.341a2.728,2.728,0,0,1-.114.657,25.386,25.386,0,0,1-1.49,3.534c-.179.308-.222.779,0,.869.278.114.542-.264.661-.569a5.591,5.591,0,0,1,.713-1.324.985.985,0,0,0,.147-.638.61.61,0,0,1,.237-.553c.276-.189.467-.131.561.193.066.227.1.463.145.663" transform="translate(-122.302 -271.728)"></path>
    <path class="cls-9" d="M261.682,345.919a9.568,9.568,0,0,1,.474-3.173,2.978,2.978,0,0,1,2.138-1.891,1.124,1.124,0,0,1,1.074.326c.307.27.127.6.094.908-.019.179-.185.208-.314.231a3.977,3.977,0,0,0-2.647,3.395c.008.347-.04.7-.056,1.047-.012.253-.1.443-.382.457s-.355-.21-.374-.418c-.029-.291-.008-.588-.008-.881" transform="translate(-122.302 -271.728)"></path>
    <path class="cls-9" d="M303.525,358.671a3.5,3.5,0,0,1-.609,1.91c-.3.569-.648,1.112-.985,1.66a1.959,1.959,0,0,0-.254.96.633.633,0,0,1-.106.438,1.986,1.986,0,0,0-.507.981.67.67,0,0,1-.706.476.582.582,0,0,1-.438-.677,1.212,1.212,0,0,1,.123-.567,14.7,14.7,0,0,0,.873-2.076,2.537,2.537,0,0,1,.4-.532,2.188,2.188,0,0,0,.611-1.215.748.748,0,0,1,.422-.544.547.547,0,0,0,.307-.513,1.36,1.36,0,0,1,.239-.827c.067-.116.087-.3.281-.239.175.054.341.141.343.368,0,.154,0,.308,0,.4" transform="translate(-122.302 -271.728)"></path>
    <path class="cls-9" d="M292.44,360a.718.718,0,0,1,.162-.513,8.747,8.747,0,0,1,1.053-1.407,2.39,2.39,0,0,0,.632-1.072,2,2,0,0,1,.806-1.141,3.4,3.4,0,0,0,.765-.829.542.542,0,0,1,.736-.177c.26.127.1.359.046.553a1.526,1.526,0,0,1-.677.922,1.9,1.9,0,0,0-.761,1.024,5.041,5.041,0,0,1-.916,1.637,5.489,5.489,0,0,0-.86,1.714c-.16.443-.222.455-.54.121a1.521,1.521,0,0,1-.447-.831" transform="translate(-122.302 -271.728)"></path>
    <path class="cls-9" d="M300.853,359.422a2.059,2.059,0,0,1-.559,1.5,2.505,2.505,0,0,0-.474,1.188,3.121,3.121,0,0,1-1.168,1.918.754.754,0,0,1-.91-.183.523.523,0,0,1,.05-.76,2.424,2.424,0,0,0,.877-1.785.939.939,0,0,1,.335-.521c.2-.21.388-.441.6-.642a1.107,1.107,0,0,0,.389-1.082c-.056-.274.137-.451.295-.617s.517.073.559.362a4.954,4.954,0,0,1,0,.619" transform="translate(-122.302 -271.728)"></path>
    <path class="cls-9" d="M269.011,333.168a.45.45,0,0,1,.43.212c.085.16-.037.262-.131.362-.436.472-.912.9-1.332,1.394a3.687,3.687,0,0,0-.783,2.123,1.613,1.613,0,0,0,0,.168c0,.494-.2.9-.445.9s-.609-.457-.609-.871a4.044,4.044,0,0,1,2-3.8c.295-.174.546-.445.871-.484" transform="translate(-122.302 -271.728)"></path>
    <path class="cls-9" d="M306.818,363.744a2.843,2.843,0,0,1-.638,1.806,5.4,5.4,0,0,0-.665,1.56.8.8,0,0,1-.682.594c-.3.027-.43-.264-.515-.526a.646.646,0,0,1,.12-.515,8.049,8.049,0,0,1,.627-1.087,6.509,6.509,0,0,0,.918-2.227,1.477,1.477,0,0,1,.4-.81c.17-.143.231-.087.3.073a2.722,2.722,0,0,1,.141,1.132" transform="translate(-122.302 -271.728)"></path>
    <path class="cls-9" d="M309.572,364.133c.013-.237.012-.476.046-.709.037-.254.162-.32.349-.1a2.164,2.164,0,0,1,.569,1.06,2.978,2.978,0,0,1-.378,2.377,2.393,2.393,0,0,1-1.8.941c-.251.019-.285-.118-.208-.318a2.338,2.338,0,0,1,.5-.719,3.387,3.387,0,0,0,.92-2.529" transform="translate(-122.302 -271.728)"></path>
    <path class="cls-9" d="M313.429,366.527a2.481,2.481,0,0,0-.374-1.508c-.112-.193-.254-.482-.071-.617s.411.1.561.26a3.536,3.536,0,0,1,.742,1.706,2.089,2.089,0,0,1-.571,2.074,2.794,2.794,0,0,0-.655,1.207c-.046.172-.06.38-.326.353a.494.494,0,0,1-.486-.389,1.254,1.254,0,0,1,.116-.775,4.722,4.722,0,0,1,.665-1.014,1.636,1.636,0,0,0,.4-1.3" transform="translate(-122.302 -271.728)"></path>
    <path class="cls-9" d="M269.592,331.3a1.771,1.771,0,0,1,.438-1.236,2.114,2.114,0,0,0,.339-.478,2.681,2.681,0,0,1,1.934-1.33.406.406,0,0,1,.488.131c.12.214-.135.28-.256.347a3.494,3.494,0,0,0-1.373,1.594,1.107,1.107,0,0,0-.131.65,1.03,1.03,0,0,1-.44.977c-.164.137-.32.3-.553.212a.616.616,0,0,1-.413-.534c-.012-.112-.021-.222-.033-.334" transform="translate(-122.302 -271.728)"></path>
    <path class="cls-5" d="M291.278,332.58c.012-.285.224-.38.413-.492a7.05,7.05,0,0,1,3.264-1.016,3.966,3.966,0,0,0,.848-.214c.181-.05.353-.039.438.139.1.193-.085.276-.212.341a5.559,5.559,0,0,0-1.313.887.682.682,0,0,1-1.033-.108.5.5,0,0,0-.619-.177,4.1,4.1,0,0,0-.916.407,1.214,1.214,0,0,1-.869.233" transform="translate(-122.302 -271.728)"></path>
    <path class="cls-9" d="M316.024,368.3a4.718,4.718,0,0,1-.148,1.031.858.858,0,0,1-1.166.659c-.245-.064-.3-.166-.16-.376.064-.093.121-.189.191-.278a2.562,2.562,0,0,0,.438-2.257c-.052-.233-.21-.575.093-.663s.445.251.544.517a5.211,5.211,0,0,1,.21,1.367" transform="translate(-122.302 -271.728)"></path>
    <path class="cls-5" d="M294.734,330.182a.662.662,0,0,1-.214-.029,1.254,1.254,0,0,0-1.189.175c-.121.071-.245.133-.37.2-.147.071-.293.125-.391-.069-.089-.179.046-.258.164-.332a11.259,11.259,0,0,1,2.971-1.218c.227-.067.453-.137.682-.2.131-.035.276-.062.2.16a3.484,3.484,0,0,1-1.857,1.313" transform="translate(-122.302 -271.728)"></path>
    <path class="cls-5" d="M275.827,322c-.416,0-.532-.147-.44-.47a.957.957,0,0,1,.536-.663A7.546,7.546,0,0,1,278,320.1a1.14,1.14,0,0,1,.289-.023.316.316,0,0,1,.214.114c.044.085-.05.15-.118.2-.729.494-1.456.989-2.192,1.473a1.432,1.432,0,0,1-.366.133" transform="translate(-122.302 -271.728)"></path>
    <path class="cls-5" d="M296.275,349.487c-.127.019-.26,0-.293-.148-.05-.224-.183-.465.037-.669a7.773,7.773,0,0,1,.787-.686c.438-.3.839-.646,1.253-.975.093-.073.193-.231.308-.127s.044.26-.052.374c-.384.443-.76.893-1.153,1.324a1.484,1.484,0,0,0-.339.519c-.1.3-.216.38-.547.389" transform="translate(-122.302 -271.728)"></path>
    <path class="cls-5" d="M296.124,344.984a.513.513,0,0,1-.145.341c-.436.546-.879,1.085-1.309,1.637-.224.287-.438.172-.571-.044-.123-.2-.43-.428-.054-.706.6-.44,1.176-.9,1.764-1.353.069-.052.11-.185.233-.1a.253.253,0,0,1,.081.227" transform="translate(-122.302 -271.728)"></path>
    <path class="cls-9" d="M297.4,350.714c-.125.01-.247-.023-.254-.154-.015-.235-.264-.528.021-.7.607-.357,1.1-.86,1.662-1.265.139-.1.337-.191.461-.058s-.066.27-.141.391c-.341.542-.895.92-1.151,1.533-.094.222-.391.175-.6.249" transform="translate(-122.302 -271.728)"></path>
    <path class="cls-5" d="M295.464,348.15c-.185.027-.276-.083-.341-.239-.077-.187-.15-.37.042-.534.235-.2.476-.388.708-.59.347-.3.688-.611,1.031-.918.1-.091.224-.152.339-.066s.033.212-.035.291c-.47.551-.754,1.236-1.253,1.77a.659.659,0,0,1-.492.285" transform="translate(-122.302 -271.728)"></path>
    <path class="cls-11" d="M293,345.34a.436.436,0,0,1,.12-.341,5.19,5.19,0,0,1,1.619-1.076c.187-.085.185.048.179.16a.811.811,0,0,1-.287.54,7.652,7.652,0,0,0-1.02,1.265c-.089.141-.166.175-.289.056a.78.78,0,0,1-.322-.6" transform="translate(-122.302 -271.728)"></path>
    <path class="cls-9" d="M298.778,351.846c-.478-.01-.507-.06-.332-.511a1.111,1.111,0,0,1,.6-.659,1.967,1.967,0,0,0,.655-.441c.112-.116.258-.214.4-.1s.014.254-.039.374c-.212.478-.675.777-.908,1.245-.073.147-.249.089-.384.094" transform="translate(-122.302 -271.728)"></path>
    <path class="cls-9" d="M307.129,361.1a1.482,1.482,0,0,1-.193.787c-.056.114-.081.308-.276.245s-.4-.148-.38-.387a15.879,15.879,0,0,1,.22-1.868c.066-.312.287-.058.353.044a2.114,2.114,0,0,1,.276,1.18" transform="translate(-122.302 -271.728)"></path>
    <path class="cls-5" d="M272.213,332.425a2.046,2.046,0,0,1-.945,1.087.339.339,0,0,1-.428-.237,1.193,1.193,0,0,1,1.028-1.284c.254.014.335.152.345.434" transform="translate(-122.302 -271.728)"></path>
    <path class="cls-12" d="M305.94,360.075c-.054.465-.1.895-.156,1.323-.023.179-.123.183-.266.1a1.036,1.036,0,0,1-.326-1.3c.058-.125.121-.249.179-.376s0-.33.181-.324a.4.4,0,0,1,.351.362c.017.083.029.166.037.212" transform="translate(-122.302 -271.728)"></path>
    <path class="cls-12" d="M266.486,331.053a1.806,1.806,0,0,1,1.108-1.544.3.3,0,0,1,.418.064.269.269,0,0,1-.1.4,16.559,16.559,0,0,0-1.423,1.082" transform="translate(-122.302 -271.728)"></path>
    <path class="cls-11" d="M301.993,357.143c.071.524-.071.852-.507,1.014-.137.05-.28.2-.413.042a.435.435,0,0,1-.039-.544,9.059,9.059,0,0,1,.69-.779c.056-.06.148-.114.224-.066.173.106.017.281.044.332" transform="translate(-122.302 -271.728)"></path>
    <path class="cls-12" d="M290.654,332.84c.008.156-.1.208-.2.239a5.973,5.973,0,0,0-1.2.551c-.135.079-.3.135-.4-.052a.261.261,0,0,1,.143-.351,4.116,4.116,0,0,1,1.247-.546c.162-.023.339-.039.414.158" transform="translate(-122.302 -271.728)"></path>
    <path class="cls-9" d="M281.321,338.144c-.334,0-.366-.191-.3-.424a1.337,1.337,0,0,1,.869-.652.368.368,0,0,1,.357.175c.071.139-.025.237-.116.326-.243.243-.447.542-.81.574" transform="translate(-122.302 -271.728)"></path>
    <path class="cls-12" d="M309.5,361.594c.042-.112-.1-.393.083-.389a.585.585,0,0,1,.605.355,2.129,2.129,0,0,1,.054.576c0,.137.071.332-.162.366a.429.429,0,0,1-.494-.222,1.3,1.3,0,0,1-.087-.686" transform="translate(-122.302 -271.728)"></path>
    <path class="cls-9" d="M299.718,352.677c-.081,0-.129-.166-.222-.278s-.021-.2.062-.285a12.094,12.094,0,0,1,1.047-.744c.089-.075.214-.081.233.1.027.253-.75,1.184-1.12,1.211" transform="translate(-122.302 -271.728)"></path>
    <path class="cls-13" d="M287.315,334.709c-.1-.021-.262.044-.322-.094-.054-.123.1-.185.152-.27a.727.727,0,0,1,.916-.339c.222.081.2.185.081.335a1.327,1.327,0,0,1-.827.368" transform="translate(-122.302 -271.728)"></path>
    <path class="cls-13" d="M302.014,352.145a1.505,1.505,0,0,1-.63.844c-.141.029-.195-.087-.27-.162a.186.186,0,0,1,0-.293,2.579,2.579,0,0,1,.642-.521c.224-.116.224.04.258.131" transform="translate(-122.302 -271.728)"></path>
    <path class="cls-12" d="M304.429,358.449c.091-.116-.12-.434.162-.4a.585.585,0,0,1,.463.652c0,.229-.118.47-.349.418-.324-.067-.272-.393-.276-.673" transform="translate(-122.302 -271.728)"></path>
    <path class="cls-13" d="M302.606,323.968c.006.189-.048.334-.253.307-.243-.033-.492-.118-.48-.418.006-.152-.017-.424.241-.413.31.012.441.253.492.524" transform="translate(-122.302 -271.728)"></path>
    <path class="cls-13" d="M297.433,353.773c.118,0,.191.027.193.106.012.295-.233.453-.384.657-.116.158-.276.058-.414.006s-.147-.141-.083-.262c.154-.3.482-.345.688-.507" transform="translate(-122.302 -271.728)"></path>
    <path class="cls-13" d="M310.816,362.4c.033-.145-.01-.334.183-.295a.648.648,0,0,1,.5.555c.035.195-.168.27-.312.247-.283-.046-.318-.3-.372-.507" transform="translate(-122.302 -271.728)"></path>
    <path class="cls-13" d="M300.417,355.941a.95.95,0,0,1-.056.237c-.064.133-.112.3-.278.337-.12.021-.133-.12-.173-.2-.085-.164-.162-.345.033-.48.127-.087.2-.3.389-.239.112.035.077.191.085.345" transform="translate(-122.302 -271.728)"></path>
    <path class="cls-14" d="M302.6,353.2c-.133-.017-.162-.077-.154-.152a.7.7,0,0,1,.436-.617c.21-.081.235.189.216.293-.054.278-.372.3-.5.476" transform="translate(-122.302 -271.728)"></path>
    <path class="cls-9" d="M285.634,342.246a1.591,1.591,0,0,1,1.1.463,1.3,1.3,0,0,1-.081,2.047c-.141.116-.272.241-.407.364-.116.106-.226.2-.4.1a.374.374,0,0,1-.224-.409,4.356,4.356,0,0,0,.073-.5.546.546,0,0,0-.256-.576c-.195-.087-.378.046-.528.174a1.114,1.114,0,0,0-.4.711,5.659,5.659,0,0,0,.22,2.649,1.176,1.176,0,0,1,.033.33c0,.083-.021.183-.123.187a.24.24,0,0,1-.172-.1,4.639,4.639,0,0,1-.923-2.9,2.406,2.406,0,0,1,.268-1.089c.121-.193-.012-.3-.154-.413-.314-.241-.3-.453.071-.642a3.885,3.885,0,0,1,1.9-.407" transform="translate(-122.302 -271.728)"></path>
    <path class="cls-11" d="M287,350.494c-.733.039-1.1-.463-1.49-.912a.424.424,0,0,1-.048-.44c.073-.179.2-.3.362-.085a1.967,1.967,0,0,0,1.145.713.605.605,0,0,1,.116.046.54.54,0,0,1,.357.557c-.046.222-.312.087-.441.12" transform="translate(-122.302 -271.728)"></path>
  </g>
  <g>
    <path class="cls-3" d="M164.585,431.605a28.414,28.414,0,0,1,7.1.77,14.555,14.555,0,0,1,4.831,2.116,8.342,8.342,0,0,1,2.758,3.186,9.226,9.226,0,0,1,.876,4.019,14.04,14.04,0,0,1-1.219,5.451,27.581,27.581,0,0,1-3.4,5.793,39.468,39.468,0,0,1-5.194,5.622,47.33,47.33,0,0,1-6.605,4.96,44.272,44.272,0,0,1-7.674,3.8,38.1,38.1,0,0,1-8.358,2.159,30.812,30.812,0,0,0-1.6,4.725,18.265,18.265,0,0,0-.577,4.382,8.29,8.29,0,0,0,.3,2.287,19.688,19.688,0,0,0,.641,1.9l-.042-.042q.256.6.428,1.068a2.545,2.545,0,0,1,.171.855,1.461,1.461,0,0,1-.513,1.219,2.975,2.975,0,0,1-1.8.405,4.621,4.621,0,0,1-2.587-.77,7.053,7.053,0,0,1-1.988-1.966,10.3,10.3,0,0,1-1.71-5.516,19.487,19.487,0,0,1,.47-4.1,35.168,35.168,0,0,1,1.283-4.446,7.512,7.512,0,0,1-2.18-1.154,8.646,8.646,0,0,1-1.582-1.561,6.547,6.547,0,0,1-.962-1.688,4.439,4.439,0,0,1-.321-1.539,2.5,2.5,0,0,1,.449-1.54,1.529,1.529,0,0,1,1.3-.6,1.476,1.476,0,0,1,1.39.619,5.638,5.638,0,0,1,.577,1.476,4.405,4.405,0,0,0,.256.727,3.637,3.637,0,0,0,.449.748,2.846,2.846,0,0,0,.748.663,3.289,3.289,0,0,0,1.2.428q.94-2.31,2.095-4.6t2.33-4.4q1.176-2.117,2.266-3.934t1.9-3.185q.727-1.241,1.154-1.925a6.421,6.421,0,0,0,.428-.727v-.256a5.927,5.927,0,0,1,.171-1.582q.171-.6,1.411-.6a4.136,4.136,0,0,1,1.561.342,5.593,5.593,0,0,1,2.694,2.373,3.365,3.365,0,0,1,.449,1.688,6.26,6.26,0,0,1-.9,2.416q-.9,1.689-2.266,4.083-.685,1.154-1.283,2.158t-1.219,2.053q-.62,1.047-1.218,2.223t-1.283,2.673a32.131,32.131,0,0,0,5.665-2.8A45.468,45.468,0,0,0,160.8,458.2a49.086,49.086,0,0,0,4.724-4.532,38.479,38.479,0,0,0,3.762-4.81,26.238,26.238,0,0,0,2.48-4.682,11.441,11.441,0,0,0,.9-4.189,4.627,4.627,0,0,0-1.689-3.7q-1.69-1.431-5.494-1.433a27.749,27.749,0,0,0-7.461,1,36.286,36.286,0,0,0-6.862,2.672,39.912,39.912,0,0,0-6.135,3.891,54.977,54.977,0,0,0-5.323,4.66,48.618,48.618,0,0,0-4.339,4.938,50.91,50.91,0,0,0-3.25,4.767,26.459,26.459,0,0,0-2.052,4.147,9.182,9.182,0,0,0-.705,3.035,1.906,1.906,0,0,0,.192.962,1.039,1.039,0,0,0,.513.449,1.876,1.876,0,0,0,.706.128,5.913,5.913,0,0,0,.727-.042q.471-.042.9-.064a1.785,1.785,0,0,1,.749.106,1.118,1.118,0,0,1,.513.406,1.472,1.472,0,0,1,.192.834,1.091,1.091,0,0,1-.342.748,3.1,3.1,0,0,1-.919.642,6.209,6.209,0,0,1-1.347.449,7.668,7.668,0,0,1-1.667.171,10.376,10.376,0,0,1-2.522-.321,6.071,6.071,0,0,1-2.33-1.154,6.446,6.446,0,0,1-1.731-2.2,7.843,7.843,0,0,1-.684-3.506,13.447,13.447,0,0,1,1.667-5.986,32.2,32.2,0,0,1,4.6-6.626,50.7,50.7,0,0,1,6.926-6.456,54.813,54.813,0,0,1,8.7-5.537,53.716,53.716,0,0,1,9.9-3.891A38.247,38.247,0,0,1,164.585,431.605Z" transform="translate(-122.302 -271.728)"></path>
    <path class="cls-3" d="M168.6,471.152a12.847,12.847,0,0,1,.62-3.826,20.066,20.066,0,0,1,1.71-3.912,22.7,22.7,0,0,1,2.587-3.655,20.8,20.8,0,0,1,3.228-3.035,16.217,16.217,0,0,1,3.613-2.074,9.874,9.874,0,0,1,3.762-.77,7.512,7.512,0,0,1,2.758.449,5.579,5.579,0,0,1,1.86,1.154,5.068,5.068,0,0,1,1.111,1.561,7.37,7.37,0,0,1,.535,1.646,5.745,5.745,0,0,1,.107,1.432,2.611,2.611,0,0,1-.171.9h.042a.483.483,0,0,1-.534.32,2.741,2.741,0,0,1-.812-.171,2.942,2.942,0,0,1-.727-.385c-.213-.156-.307-.278-.278-.363a1.307,1.307,0,0,0,.021-.471,1.79,1.79,0,0,0-.256-.791,2.124,2.124,0,0,0-.77-.727,2.971,2.971,0,0,0-1.518-.321,3.71,3.71,0,0,0-2.2.9,13.8,13.8,0,0,0-2.33,2.33,26.907,26.907,0,0,0-2.223,3.249,31.761,31.761,0,0,0-1.86,3.677,30.379,30.379,0,0,0-1.283,3.592,11.141,11.141,0,0,0-.492,2.971q0,1.54.9,1.54a3.412,3.412,0,0,0,2.181-.941,13.293,13.293,0,0,0,2.159-2.394,24.836,24.836,0,0,0,1.945-3.207q.9-1.752,1.582-3.335t1.069-2.778a6.794,6.794,0,0,0,.385-1.582.453.453,0,0,1,.424-.471,2.376,2.376,0,0,1,1.061.086,11.152,11.152,0,0,1,1.4.491,9.205,9.205,0,0,1,1.4.728,5.6,5.6,0,0,1,1.061.854,1.255,1.255,0,0,1,.425.791,4.691,4.691,0,0,1-.448,1.539q-.448,1.069-1.046,2.438-.426.94-.875,1.966t-.81,2.01q-.363.984-.6,1.839a5.561,5.561,0,0,0-.234,1.41c0,.144-.015.214-.043.214q.6,0,1.515-1a23.435,23.435,0,0,0,1.985-2.564q1.067-1.56,2.158-3.442t2.052-3.655q.962-1.774,1.689-3.206t1.069-2.116a.668.668,0,0,1,.663-.343,2.529,2.529,0,0,1,.962.192,2.227,2.227,0,0,1,.791.535.635.635,0,0,1,.192.684q-.385.855-1.261,2.565t-2.031,3.763q-1.154,2.051-2.5,4.211a42.609,42.609,0,0,1-2.735,3.912,20.746,20.746,0,0,1-2.711,2.886,3.9,3.9,0,0,1-2.433,1.133,3.748,3.748,0,0,1-2.155-.62,8.085,8.085,0,0,1-1.558-1.347,7.558,7.558,0,0,1-1.28-2.01q-.511.6-1.192,1.283a14.056,14.056,0,0,1-1.469,1.282,9,9,0,0,1-1.661,1,4.05,4.05,0,0,1-1.724.406,5.629,5.629,0,0,1-2.929-.748,6.785,6.785,0,0,1-2.116-1.967,9.373,9.373,0,0,1-1.3-2.715A10.365,10.365,0,0,1,168.6,471.152Z" transform="translate(-122.302 -271.728)"></path>
    <path class="cls-3" d="M220.763,460.208a2.1,2.1,0,0,1,1.026-1,1.355,1.355,0,0,1,1.048-.043,1.248,1.248,0,0,1,.663.748,1.831,1.831,0,0,1-.128,1.368l-.385.855-1.39,2.886q-.833,1.731-1.9,3.677t-2.309,3.891a31.944,31.944,0,0,1-2.565,3.506,14.279,14.279,0,0,1-2.715,2.522,4.828,4.828,0,0,1-2.758.962,3.174,3.174,0,0,1-1.752-.556,5.97,5.97,0,0,1-1.518-1.433,8.808,8.808,0,0,1-1.09-1.881,4.862,4.862,0,0,1-.427-1.9,8.505,8.505,0,0,1,.256-1.839q-1.112,1.5-2.245,2.864t-2.18,2.438a13.018,13.018,0,0,1-1.967,1.688,2.971,2.971,0,0,1-1.561.62,3.256,3.256,0,0,1-1.881-.62,6.582,6.582,0,0,1-1.561-1.518,8.542,8.542,0,0,1-1.069-1.924,5.077,5.077,0,0,1-.406-1.839,9.484,9.484,0,0,1,.342-2.437,21.317,21.317,0,0,1,.919-2.672q.577-1.389,1.261-2.779t1.411-2.758q.6-1.11,1.154-2.2t.983-2.074a17.564,17.564,0,0,0,.684-1.816,5.107,5.107,0,0,0,.256-1.476c0-.455.313-.7.941-.727a4.692,4.692,0,0,1,2.095.47,6.952,6.952,0,0,1,2.1,1.454,3.042,3.042,0,0,1,.94,2.224,4.52,4.52,0,0,1-.321,1.41q-.321.9-.833,2.053t-1.2,2.479l-1.411,2.736q-.856,1.667-1.71,3.292t-1.5,2.907q-.642,1.283-.983,2.073c-.229.528-.3.791-.214.791q.256,0,.962-.705t1.646-1.839q.94-1.132,2.052-2.607t2.266-3.015q2.65-3.59,5.857-8.166l1.411-3.121a5.909,5.909,0,0,0,.6-1.71q0-.683.855-.62a4.779,4.779,0,0,1,1.881.62,7.593,7.593,0,0,1,1.881,1.454,2.637,2.637,0,0,1,.855,1.795,6.553,6.553,0,0,1-.705,2.159q-.706,1.562-1.689,3.613-.727,1.5-1.5,3.143t-1.411,3.163q-.642,1.519-1.069,2.822a7.1,7.1,0,0,0-.428,2.073c0,.229.028.342.085.342a2.449,2.449,0,0,0,1.6-.854,16.482,16.482,0,0,0,1.838-2.2q.962-1.346,1.945-3.014t1.838-3.335q.855-1.668,1.561-3.143t1.176-2.416l.385-.812Z" transform="translate(-122.302 -271.728)"></path>
    <path class="cls-3" d="M234.187,445.287a8.441,8.441,0,0,1-.517,2.5q-.517,1.56-1.356,3.506T230.4,455.5q-1.076,2.266-2.238,4.574-1.155,2.4-2.288,4.725t-2.031,4.361q-.9,2.03-1.432,3.634a8.528,8.528,0,0,0-.535,2.5c0,.2.014.3.043.3a3.122,3.122,0,0,0,1.86-.94,18.987,18.987,0,0,0,2.287-2.415q1.2-1.475,2.437-3.25t2.309-3.463q1.069-1.687,1.86-3.057t1.133-2.052a.69.69,0,0,1,.642-.364,2.335,2.335,0,0,1,.962.172,2.192,2.192,0,0,1,.813.534.635.635,0,0,1,.192.684q-.428.857-1.368,2.544t-2.223,3.7q-1.283,2.01-2.843,4.126a38.29,38.29,0,0,1-3.207,3.826,21.274,21.274,0,0,1-3.271,2.822,5.515,5.515,0,0,1-3.079,1.111,4.387,4.387,0,0,1-3.484-1.561,6.223,6.223,0,0,1-1.347-4.211,9.943,9.943,0,0,1,.6-2.779q.6-1.838,1.582-4.189t2.18-5.024q1.2-2.67,2.437-5.322,1.154-2.437,2.223-4.788t1.924-4.34q.855-1.988,1.368-3.484a7.716,7.716,0,0,0,.513-2.181q0-.684.9-.556a5.634,5.634,0,0,1,1.981.748,8.915,8.915,0,0,1,1.981,1.561A2.721,2.721,0,0,1,234.187,445.287Z" transform="translate(-122.302 -271.728)"></path>
    <path class="cls-3" d="M229.143,471.152a12.847,12.847,0,0,1,.62-3.826,20.066,20.066,0,0,1,1.71-3.912,22.7,22.7,0,0,1,2.587-3.655,20.8,20.8,0,0,1,3.228-3.035,16.217,16.217,0,0,1,3.613-2.074,9.874,9.874,0,0,1,3.762-.77,7.512,7.512,0,0,1,2.758.449,5.579,5.579,0,0,1,1.86,1.154,5.068,5.068,0,0,1,1.111,1.561,7.37,7.37,0,0,1,.535,1.646,5.745,5.745,0,0,1,.107,1.432,2.611,2.611,0,0,1-.171.9h.042a.483.483,0,0,1-.534.32,2.741,2.741,0,0,1-.812-.171,2.942,2.942,0,0,1-.727-.385c-.213-.156-.307-.278-.278-.363a1.307,1.307,0,0,0,.021-.471,1.79,1.79,0,0,0-.256-.791,2.124,2.124,0,0,0-.77-.727,2.971,2.971,0,0,0-1.518-.321,3.71,3.71,0,0,0-2.2.9,13.8,13.8,0,0,0-2.33,2.33,26.907,26.907,0,0,0-2.223,3.249,31.76,31.76,0,0,0-1.86,3.677,30.379,30.379,0,0,0-1.283,3.592,11.141,11.141,0,0,0-.492,2.971q0,1.54.9,1.54a3.412,3.412,0,0,0,2.181-.941,13.293,13.293,0,0,0,2.159-2.394,24.836,24.836,0,0,0,1.945-3.207q.9-1.752,1.582-3.335t1.069-2.778a6.794,6.794,0,0,0,.385-1.582.453.453,0,0,1,.424-.471,2.376,2.376,0,0,1,1.061.086,11.152,11.152,0,0,1,1.4.491,9.205,9.205,0,0,1,1.4.728,5.6,5.6,0,0,1,1.061.854,1.255,1.255,0,0,1,.425.791,4.691,4.691,0,0,1-.448,1.539q-.448,1.069-1.046,2.438-.426.94-.875,1.966t-.81,2.01q-.363.984-.6,1.839a5.561,5.561,0,0,0-.234,1.41c0,.144-.015.214-.043.214q.6,0,1.515-1a23.435,23.435,0,0,0,1.985-2.564q1.067-1.56,2.158-3.442t2.052-3.655q.962-1.774,1.689-3.206t1.069-2.116a.668.668,0,0,1,.663-.343,2.529,2.529,0,0,1,.962.192,2.227,2.227,0,0,1,.791.535.635.635,0,0,1,.192.684q-.385.855-1.261,2.565t-2.031,3.763q-1.154,2.051-2.5,4.211a42.609,42.609,0,0,1-2.735,3.912,20.746,20.746,0,0,1-2.711,2.886,3.9,3.9,0,0,1-2.433,1.133,3.748,3.748,0,0,1-2.155-.62,8.085,8.085,0,0,1-1.558-1.347,7.558,7.558,0,0,1-1.28-2.01q-.511.6-1.192,1.283a14.056,14.056,0,0,1-1.469,1.282,9,9,0,0,1-1.661,1,4.05,4.05,0,0,1-1.724.406,5.629,5.629,0,0,1-2.929-.748,6.785,6.785,0,0,1-2.116-1.967,9.373,9.373,0,0,1-1.3-2.715A10.365,10.365,0,0,1,229.143,471.152Z" transform="translate(-122.302 -271.728)"></path>
    <path class="cls-3" d="M280.532,460.208a2.1,2.1,0,0,1,1.026-1,1.406,1.406,0,0,1,1.069-.043,1.236,1.236,0,0,1,.684.748,1.741,1.741,0,0,1-.171,1.368q-.428.855-1.24,2.544t-1.9,3.741q-1.09,2.052-2.416,4.168a37.869,37.869,0,0,1-2.758,3.869,17.093,17.093,0,0,1-2.907,2.865,4.77,4.77,0,0,1-2.843,1.111,4.4,4.4,0,0,1-3.463-1.561,6.158,6.158,0,0,1-1.368-4.211,8.454,8.454,0,0,1,.364-2.2q.363-1.3.962-2.843t1.347-3.207q.747-1.667,1.475-3.249-1.411,1.667-2.972,3.549t-2.95,3.7q-1.39,1.818-2.458,3.42a23.183,23.183,0,0,0-1.582,2.672c-.029.144-.05.271-.064.385a2.2,2.2,0,0,0-.021.257l.085.342a.957.957,0,0,1,.043.3.933.933,0,0,0,.042.3v-.043q.128.514.214.94a1.664,1.664,0,0,1,0,.749.832.832,0,0,1-.428.513,2.154,2.154,0,0,1-1.026.192,3.86,3.86,0,0,1-1.667-.406,5.212,5.212,0,0,1-1.561-1.154,6.514,6.514,0,0,1-1.176-1.774,5.484,5.484,0,0,1-.47-2.309,9.7,9.7,0,0,1,.342-2.458,23.172,23.172,0,0,1,.9-2.693q.557-1.39,1.261-2.8t1.433-2.821q1.2-2.351,2.138-4.383a8.4,8.4,0,0,0,.94-3.313c0-.455.313-.7.94-.727a4.693,4.693,0,0,1,2.1.47,6.764,6.764,0,0,1,2.095,1.476,3.114,3.114,0,0,1,.941,2.244,4.636,4.636,0,0,1-.321,1.5q-.321.9-.834,2.009,1.325-1.581,2.629-3.078t2.437-2.672q1.132-1.176,1.988-1.9a2.522,2.522,0,0,1,1.24-.728h.256a.767.767,0,0,1,.342.086,4.644,4.644,0,0,1,1.154.62,7.043,7.043,0,0,1,1.2,1.068,5.946,5.946,0,0,1,.919,1.368,3.45,3.45,0,0,1,.363,1.518,6.553,6.553,0,0,1-.705,2.159q-.705,1.562-1.689,3.613-.727,1.5-1.518,3.143t-1.433,3.163q-.641,1.519-1.069,2.822a7.1,7.1,0,0,0-.427,2.073c0,.229.028.342.085.342a2.453,2.453,0,0,0,1.539-.9,19.362,19.362,0,0,0,1.945-2.352q1.047-1.453,2.116-3.228t2.01-3.527q.94-1.753,1.688-3.271t1.133-2.459Z" transform="translate(-122.302 -271.728)"></path>
    <path class="cls-3" d="M300.883,460.208a.667.667,0,0,1,.662-.343,2.527,2.527,0,0,1,.962.192,2.223,2.223,0,0,1,.791.535.633.633,0,0,1,.192.684q-.428.855-1.3,2.544t-2.181,3.72q-1.305,2.032-2.971,4.168a27.927,27.927,0,0,1-3.677,3.891,19.23,19.23,0,0,1-4.318,2.865,11,11,0,0,1-4.831,1.111,7.172,7.172,0,0,1-3.677-.9,8.542,8.542,0,0,1-2.565-2.267,9.578,9.578,0,0,1-1.518-2.992,10.784,10.784,0,0,1-.492-3.121,13.206,13.206,0,0,1,1.454-5.922,19.119,19.119,0,0,1,3.827-5.237,20.207,20.207,0,0,1,5.344-3.741,13.806,13.806,0,0,1,6.049-1.432,3.911,3.911,0,0,1,2.886.9,3.283,3.283,0,0,1,.876,2.395,6.93,6.93,0,0,1-.577,2.544,18.159,18.159,0,0,1-1.561,2.971,27.087,27.087,0,0,1-2.266,3.036,25.86,25.86,0,0,1-2.715,2.736,19.637,19.637,0,0,1-2.929,2.116,9.921,9.921,0,0,1-2.864,1.176,7.851,7.851,0,0,0-.171,1.624,3.3,3.3,0,0,0,.342,1.6,1.209,1.209,0,0,0,1.154.62,7.946,7.946,0,0,0,3.72-.962,17.183,17.183,0,0,0,3.506-2.458,29,29,0,0,0,3.142-3.313q1.475-1.818,2.629-3.549t1.945-3.121Q300.54,460.893,300.883,460.208Zm-7.7-3.207a3.669,3.669,0,0,0-2.245,1,14.333,14.333,0,0,0-2.394,2.608,27.789,27.789,0,0,0-2.224,3.612,34.328,34.328,0,0,0-1.774,3.977,13.835,13.835,0,0,0,3.121-2.224,26.427,26.427,0,0,0,2.864-3.078,19.673,19.673,0,0,0,2.074-3.164,5.864,5.864,0,0,0,.791-2.479C293.4,457.087,293.329,457,293.187,457Z" transform="translate(-122.302 -271.728)"></path>
    <path class="cls-3" d="M316.872,460.25a.649.649,0,0,1,.641-.342,2.638,2.638,0,0,1,.962.192,2.349,2.349,0,0,1,.813.514.534.534,0,0,1,.149.662q-.384.855-1.218,2.544t-1.967,3.72q-1.134,2.032-2.459,4.168a41.227,41.227,0,0,1-2.715,3.891,17.256,17.256,0,0,1-2.8,2.865,4.384,4.384,0,0,1-2.651,1.111,5.075,5.075,0,0,1-2.223-.471,5.8,5.8,0,0,1-1.688-1.2,5.189,5.189,0,0,1-1.091-1.668,5.025,5.025,0,0,1-.385-1.924,10.743,10.743,0,0,1,.513-2.972q.514-1.731,1.112-3.313.727-1.837,1.667-3.8-.343-.214-.705-.471a8.551,8.551,0,0,1-.748-.6q-.343.684-.748,1.475t-1.262,2.244a.6.6,0,0,1-.642.257,2.412,2.412,0,0,1-.94-.3,2.782,2.782,0,0,1-.77-.6.477.477,0,0,1-.085-.642v.043q.641-1.112,1.047-1.882t.684-1.347q.278-.577.491-1c.144-.285.285-.584.428-.9a5.2,5.2,0,0,1-.32-1.176,8.706,8.706,0,0,1-.107-1.39,11.434,11.434,0,0,1,.342-2.778,11.658,11.658,0,0,1,.9-2.459,6.576,6.576,0,0,1,1.239-1.753,2.032,2.032,0,0,1,1.411-.662,9.588,9.588,0,0,1,1.539.149,8.007,8.007,0,0,1,1.688.471,4.194,4.194,0,0,1,1.348.854,1.742,1.742,0,0,1,.556,1.3,3.138,3.138,0,0,1-.385,1.433q-.385.749-.855,1.646a18.843,18.843,0,0,0-1.09,2.073,5.043,5.043,0,0,0-.492,2.073,3.734,3.734,0,0,0,.192,1.262,2.741,2.741,0,0,0,.514.9,3.575,3.575,0,0,0,.705.62c.257.171.5.328.727.471a6.437,6.437,0,0,1,1.2.79,1.525,1.525,0,0,1,.471,1.219,4.366,4.366,0,0,1-.428,1.518q-.428,1-1.026,2.245-.385.855-.812,1.816t-.77,1.86q-.343.9-.577,1.71a5.073,5.073,0,0,0-.235,1.368c0,.314.071.471.214.471a2.544,2.544,0,0,0,1.582-.983,21.113,21.113,0,0,0,2.01-2.522q1.068-1.54,2.159-3.421t2.073-3.677q.983-1.8,1.731-3.313t1.091-2.33Z" transform="translate(-122.302 -271.728)"></path>
    <path class="cls-3" d="M334.144,460.25a.65.65,0,0,1,.642-.342,2.473,2.473,0,0,1,.94.192,2.384,2.384,0,0,1,.791.514.6.6,0,0,1,.192.662q-.385.771-1.111,2.2t-1.8,3.206q-1.069,1.775-2.459,3.7a31.2,31.2,0,0,1-3.1,3.656,26.158,26.158,0,0,1-3.677,3.1,15.054,15.054,0,0,1-4.189,2.052,11.79,11.79,0,0,1-2.693.342h-.257a4.621,4.621,0,0,1-3.164-.983,5.3,5.3,0,0,1-1.539-2.18,4.934,4.934,0,0,1-.32-2.181q.107-.983.449-.983a.99.99,0,0,1,.919.385,5.78,5.78,0,0,1,.449.94,3.932,3.932,0,0,0,.213.513,2.2,2.2,0,0,0,.343.492,1.606,1.606,0,0,0,.556.385,2.271,2.271,0,0,0,.9.149,2.733,2.733,0,0,0,1.454-.491,5.44,5.44,0,0,0,1.41-1.347,7.9,7.9,0,0,0,1.069-2.01,7.1,7.1,0,0,0,.428-2.479,5.251,5.251,0,0,0-.514-2.309q-.513-1.069-1.111-2.181l.043.043-.77-1.368c-.144.313-.307.662-.492,1.047s-.477.905-.876,1.561a.556.556,0,0,1-.642.278,2.773,2.773,0,0,1-.919-.3,2.541,2.541,0,0,1-.748-.577.526.526,0,0,1-.129-.641q.514-.94.9-1.625t.642-1.2q.256-.513.427-.919t.343-.791l-.043.043.342-.728a8.368,8.368,0,0,1-.128-1.368,8.269,8.269,0,0,1,.705-3.441,9.958,9.958,0,0,1,1.731-2.672,8.3,8.3,0,0,1,2.138-1.71,4.206,4.206,0,0,1,1.924-.6,9.436,9.436,0,0,1,1.112.085,4.878,4.878,0,0,1,1.325.363,3.039,3.039,0,0,1,1.09.791,2,2,0,0,1,.449,1.368,2.142,2.142,0,0,1-.428,1.3,10.618,10.618,0,0,1-1.026,1.176,11.226,11.226,0,0,0-1.347,1.539,3.564,3.564,0,0,0-.662,2.18,6.537,6.537,0,0,0,.534,2.694q.533,1.2,1.133,2.394v-.043a19.08,19.08,0,0,1,1.262,2.587,8.38,8.38,0,0,1,.534,3.1c0,.229-.008.485-.021.77s-.021.542-.021.77a26.02,26.02,0,0,0,2.2-2.8q1-1.475,1.795-2.865t1.411-2.586q.62-1.2,1-2.01l.428-.9Z" transform="translate(-122.302 -271.728)"></path>
    <path class="cls-3" d="M355.82,451.059q0,.343-.706.983a7.728,7.728,0,0,1-2.18,1.261,20.49,20.49,0,0,1-3.784,1.091,27.767,27.767,0,0,1-5.473.47q-.384.855-.791,1.71t-.833,1.711q-1.154,2.436-2.309,4.938t-2.074,4.725q-.92,2.224-1.5,4.062A10.509,10.509,0,0,0,335.6,475q0,1.025.642,1.025a4.562,4.562,0,0,0,2.586-.983,17.81,17.81,0,0,0,2.8-2.522,43.873,43.873,0,0,0,2.8-3.4q1.39-1.86,2.522-3.613t1.945-3.185q.813-1.433,1.155-2.116a.673.673,0,0,1,.641-.3,2.638,2.638,0,0,1,.962.192,2.349,2.349,0,0,1,.813.514.6.6,0,0,1,.192.662q-.428.855-1.347,2.544t-2.244,3.741q-1.326,2.052-2.95,4.168a36.189,36.189,0,0,1-3.421,3.869,19.092,19.092,0,0,1-3.7,2.865,7.45,7.45,0,0,1-3.783,1.111,4.437,4.437,0,0,1-1.774-.449,6.752,6.752,0,0,1-1.9-1.3,7.136,7.136,0,0,1-1.5-2.095,6.52,6.52,0,0,1-.6-2.864A9.543,9.543,0,0,1,330,470.19q.555-1.731,1.475-3.954t2.095-4.768q1.176-2.543,2.373-5.108l.9-1.925a24.878,24.878,0,0,1-3.356-.748,18.775,18.775,0,0,1-2.48-.919,7.212,7.212,0,0,1-1.539-.919q-.533-.45-.534-.706a1.569,1.569,0,0,1,.192-.876.827.827,0,0,1,.577-.342,2.718,2.718,0,0,1,.983.063q.6.129,1.454.3.983.214,2.522.491t3.634.492q1.54-3.335,2.544-5.922a12.122,12.122,0,0,0,1-3.655q0-.684.854-.6a5.287,5.287,0,0,1,1.9.642,7.432,7.432,0,0,1,1.9,1.453,2.641,2.641,0,0,1,.854,1.8,8.845,8.845,0,0,1-.577,2.672q-.577,1.69-1.561,3.869a33.365,33.365,0,0,0,4.511-.427q1.988-.343,3.229-.685l-.043.043a7.059,7.059,0,0,1,2.138-.278A.769.769,0,0,1,355.82,451.059Z" transform="translate(-122.302 -271.728)"></path>
    <path class="cls-3" d="M373.477,460.208a2.1,2.1,0,0,1,1.026-1,1.355,1.355,0,0,1,1.048-.043,1.247,1.247,0,0,1,.662.748,1.83,1.83,0,0,1-.128,1.368l-.385.855q-.557,1.154-1.39,2.886t-1.9,3.677q-1.069,1.945-2.309,3.891a32.007,32.007,0,0,1-2.565,3.506,14.279,14.279,0,0,1-2.715,2.522,4.829,4.829,0,0,1-2.758.962,3.175,3.175,0,0,1-1.753-.556,5.976,5.976,0,0,1-1.518-1.433,8.786,8.786,0,0,1-1.09-1.881,4.863,4.863,0,0,1-.428-1.9,8.45,8.45,0,0,1,.257-1.839q-1.113,1.5-2.245,2.864t-2.181,2.438a12.971,12.971,0,0,1-1.967,1.688,2.968,2.968,0,0,1-1.56.62,3.256,3.256,0,0,1-1.882-.62,6.573,6.573,0,0,1-1.561-1.518,8.5,8.5,0,0,1-1.068-1.924,5.078,5.078,0,0,1-.406-1.839,9.484,9.484,0,0,1,.342-2.437,21.311,21.311,0,0,1,.919-2.672q.577-1.389,1.262-2.779t1.411-2.758q.6-1.11,1.154-2.2t.983-2.074a17.666,17.666,0,0,0,.684-1.816,5.109,5.109,0,0,0,.257-1.476c0-.455.313-.7.94-.727a4.691,4.691,0,0,1,2.095.47,6.944,6.944,0,0,1,2.095,1.454,3.04,3.04,0,0,1,.94,2.224,4.516,4.516,0,0,1-.32,1.41q-.321.9-.834,2.053t-1.2,2.479q-.686,1.326-1.411,2.736-.855,1.667-1.71,3.292t-1.5,2.907q-.64,1.283-.983,2.073c-.229.528-.3.791-.213.791q.256,0,.962-.705t1.646-1.839q.94-1.132,2.053-2.607t2.266-3.015q2.65-3.59,5.857-8.166l1.41-3.121a5.893,5.893,0,0,0,.6-1.71q0-.683.855-.62a4.777,4.777,0,0,1,1.881.62,7.607,7.607,0,0,1,1.882,1.454,2.639,2.639,0,0,1,.854,1.795,6.565,6.565,0,0,1-.705,2.159q-.706,1.562-1.688,3.613-.728,1.5-1.5,3.143t-1.411,3.163q-.64,1.519-1.068,2.822a7.1,7.1,0,0,0-.428,2.073c0,.229.028.342.086.342a2.446,2.446,0,0,0,1.6-.854,16.519,16.519,0,0,0,1.839-2.2q.962-1.346,1.945-3.014t1.839-3.335q.854-1.668,1.561-3.143t1.175-2.416l.385-.812Z" transform="translate(-122.302 -271.728)"></path>
    <path class="cls-3" d="M401.224,460.165a.649.649,0,0,1,.642-.342,2.617,2.617,0,0,1,.962.192,2.192,2.192,0,0,1,.813.534.635.635,0,0,1,.192.684q-.428.857-1.518,2.565a35.861,35.861,0,0,1-2.8,3.741,48.645,48.645,0,0,1-4,4.168,33.276,33.276,0,0,1-5.088,3.891,28.9,28.9,0,0,1-6.071,2.865,21.44,21.44,0,0,1-6.947,1.111q-4.233,0-6.114-2.138a8.9,8.9,0,0,1-1.881-6.071,9.174,9.174,0,0,1,.577-2.629q.577-1.731,1.5-3.955t2.095-4.788q1.176-2.565,2.373-5.131,1.068-2.265,2.074-4.4t1.773-3.934q.771-1.8,1.24-3.121a6.642,6.642,0,0,0,.471-1.924,1.559,1.559,0,0,1,.47-1.3,1.9,1.9,0,0,1,1.2-.363,3.274,3.274,0,0,1,1.368.363,6.286,6.286,0,0,1,2.565,2.244,2.723,2.723,0,0,1,.47,1.5,7.113,7.113,0,0,1-.406,1.924q-.406,1.282-1,2.843t-1.3,3.228q-.7,1.668-1.325,3.079t-1.068,2.372q-.45.962-.535,1.091.94-.812,1.988-1.625a19.03,19.03,0,0,1,2.159-1.453,14.678,14.678,0,0,1,2.2-1.048,6.047,6.047,0,0,1,2.116-.406,4.266,4.266,0,0,1,2.629.727,4.719,4.719,0,0,1,1.454,1.774,7.009,7.009,0,0,1,.62,2.224,19.841,19.841,0,0,1,.128,2.116,14.422,14.422,0,0,1-1.219,5.771,21.282,21.282,0,0,1-3.569,5.516,34.241,34.241,0,0,0,4.083-3.4,47.037,47.037,0,0,0,3.249-3.484,32.593,32.593,0,0,0,2.266-3.014A18.7,18.7,0,0,0,401.224,460.165Zm-23.515,15.861a3.854,3.854,0,0,0,2.224-.876,14.181,14.181,0,0,0,2.394-2.287,25.923,25.923,0,0,0,2.31-3.229,31.047,31.047,0,0,0,1.945-3.72,28.331,28.331,0,0,0,1.347-3.74,12.405,12.405,0,0,0,.513-3.292q0-.684-.342-.685a4.269,4.269,0,0,0-2.053.748,18.689,18.689,0,0,0-2.629,1.967,33.509,33.509,0,0,0-2.779,2.758,35.457,35.457,0,0,0-2.522,3.121,19.829,19.829,0,0,0-1.838,3.078,6.293,6.293,0,0,0-.706,2.608,7.042,7.042,0,0,0,.107,1.218,4.023,4.023,0,0,0,.363,1.133,2.64,2.64,0,0,0,.662.855A1.5,1.5,0,0,0,377.709,476.026Z" transform="translate(-122.302 -271.728)"></path>
    <path class="cls-3" d="M421.4,460.208a.669.669,0,0,1,.663-.343,2.531,2.531,0,0,1,.962.192,2.223,2.223,0,0,1,.791.535.635.635,0,0,1,.192.684q-.428.855-1.3,2.544t-2.181,3.72q-1.305,2.032-2.972,4.168a27.9,27.9,0,0,1-3.677,3.891,19.241,19.241,0,0,1-4.318,2.865,11,11,0,0,1-4.831,1.111,7.171,7.171,0,0,1-3.677-.9,8.542,8.542,0,0,1-2.565-2.267,9.578,9.578,0,0,1-1.518-2.992,10.782,10.782,0,0,1-.491-3.121,13.205,13.205,0,0,1,1.453-5.922,19.137,19.137,0,0,1,3.826-5.237A20.209,20.209,0,0,1,407.1,455.4a13.8,13.8,0,0,1,6.05-1.432,3.912,3.912,0,0,1,2.886.9,3.283,3.283,0,0,1,.876,2.395,6.93,6.93,0,0,1-.577,2.544,18.159,18.159,0,0,1-1.561,2.971,26.9,26.9,0,0,1-2.266,3.036,25.86,25.86,0,0,1-2.715,2.736,19.662,19.662,0,0,1-2.929,2.116A9.915,9.915,0,0,1,404,471.837a7.851,7.851,0,0,0-.171,1.624,3.3,3.3,0,0,0,.342,1.6,1.209,1.209,0,0,0,1.154.62,7.945,7.945,0,0,0,3.72-.962,17.183,17.183,0,0,0,3.506-2.458,29.007,29.007,0,0,0,3.143-3.313q1.475-1.818,2.629-3.549t1.945-3.121Q421.061,460.893,421.4,460.208Zm-7.7-3.207a3.669,3.669,0,0,0-2.245,1,14.366,14.366,0,0,0-2.394,2.608,27.842,27.842,0,0,0-2.224,3.612,34.416,34.416,0,0,0-1.774,3.977,13.813,13.813,0,0,0,3.121-2.224,26.4,26.4,0,0,0,2.865-3.078,19.734,19.734,0,0,0,2.073-3.164,5.857,5.857,0,0,0,.791-2.479C413.921,457.087,413.85,457,413.707,457Z" transform="translate(-122.302 -271.728)"></path>
    <path class="cls-3" d="M443.977,460.208a2.1,2.1,0,0,1,1.025-1,1.408,1.408,0,0,1,1.069-.043,1.234,1.234,0,0,1,.684.748,1.737,1.737,0,0,1-.171,1.368q-.428.855-1.239,2.544t-1.9,3.741q-1.091,2.052-2.416,4.168a37.794,37.794,0,0,1-2.758,3.869,17.093,17.093,0,0,1-2.907,2.865,4.769,4.769,0,0,1-2.843,1.111,4.4,4.4,0,0,1-3.463-1.561,6.156,6.156,0,0,1-1.368-4.211,8.43,8.43,0,0,1,.363-2.2q.362-1.3.962-2.843t1.347-3.207q.747-1.667,1.475-3.249-1.411,1.667-2.971,3.549t-2.95,3.7q-1.39,1.818-2.459,3.42a23.225,23.225,0,0,0-1.581,2.672c-.029.144-.051.271-.064.385a2.2,2.2,0,0,0-.021.257l.086.342a.987.987,0,0,1,.042.3.946.946,0,0,0,.043.3v-.043c.086.343.156.656.214.94a1.664,1.664,0,0,1,0,.749.834.834,0,0,1-.428.513,2.154,2.154,0,0,1-1.025.192,3.864,3.864,0,0,1-1.668-.406,5.225,5.225,0,0,1-1.561-1.154,6.537,6.537,0,0,1-1.176-1.774,5.476,5.476,0,0,1-.47-2.309,9.724,9.724,0,0,1,.342-2.458,23.08,23.08,0,0,1,.9-2.693q.557-1.39,1.262-2.8t1.432-2.821q1.2-2.351,2.138-4.383a8.391,8.391,0,0,0,.941-3.313c0-.455.313-.7.94-.727a4.694,4.694,0,0,1,2.095.47,6.764,6.764,0,0,1,2.095,1.476,3.111,3.111,0,0,1,.94,2.244,4.634,4.634,0,0,1-.32,1.5q-.321.9-.834,2.009,1.326-1.581,2.63-3.078t2.437-2.672q1.132-1.176,1.988-1.9a2.519,2.519,0,0,1,1.24-.728h.256a.767.767,0,0,1,.342.086,4.61,4.61,0,0,1,1.154.62,7.006,7.006,0,0,1,1.2,1.068,5.981,5.981,0,0,1,.92,1.368,3.457,3.457,0,0,1,.363,1.518,6.55,6.55,0,0,1-.706,2.159q-.7,1.562-1.688,3.613-.728,1.5-1.518,3.143t-1.433,3.163q-.642,1.519-1.068,2.822a7.1,7.1,0,0,0-.428,2.073c0,.229.028.342.085.342a2.455,2.455,0,0,0,1.54-.9,19.5,19.5,0,0,0,1.945-2.352q1.046-1.453,2.116-3.228t2.009-3.527q.94-1.753,1.689-3.271t1.133-2.459Z" transform="translate(-122.302 -271.728)"></path>
  </g>
</svg>